<svg xmlns="http://www.w3.org/2000/svg" xmlns:xlink="http://www.w3.org/1999/xlink" width="500" zoomAndPan="magnify" viewBox="0 0 375 374.999991" height="500" preserveAspectRatio="xMidYMid meet" version="1.0"><defs><clipPath id="4426743579"><path d="M 46.023438 0 L 328.773438 0 L 328.773438 375 L 46.023438 375 Z M 46.023438 0 " clip-rule="nonzero"/></clipPath><clipPath id="c63c967e65"><path d="M 46.023438 107 L 260 107 L 260 375 L 46.023438 375 Z M 46.023438 107 " clip-rule="nonzero"/></clipPath><clipPath id="2ad1e87a94"><path d="M 119 100 L 328.773438 100 L 328.773438 375 L 119 375 Z M 119 100 " clip-rule="nonzero"/></clipPath></defs><g clip-path="url(#4426743579)"><path fill="#b43740" d="M 48.6875 370.753906 C 48.6875 370.757812 48.6875 370.757812 48.6875 370.757812 Z M 48.128906 371.3125 C 48.132812 371.3125 48.132812 371.3125 48.136719 371.3125 C 48.136719 371.3125 48.136719 371.3125 48.136719 371.308594 Z M 47.847656 371.597656 C 47.855469 371.597656 47.855469 371.59375 47.859375 371.589844 C 47.863281 371.589844 47.863281 371.585938 47.863281 371.582031 C 47.863281 371.582031 47.847656 371.597656 47.847656 371.597656 Z M 50.621094 368.265625 C 50.625 368.265625 50.628906 368.261719 50.632812 368.261719 C 50.632812 368.257812 50.632812 368.257812 50.636719 368.253906 C 50.636719 368.253906 50.621094 368.265625 50.621094 368.265625 Z M 50.070312 369.097656 C 50.070312 369.097656 50.074219 369.09375 50.074219 369.09375 C 50.074219 369.09375 50.078125 369.089844 50.078125 369.089844 Z M 50.34375 368.542969 C 50.347656 368.542969 50.351562 368.539062 50.355469 368.539062 C 50.355469 368.535156 50.355469 368.53125 50.355469 368.53125 C 50.355469 368.53125 50.34375 368.542969 50.34375 368.542969 Z M 328.6875 316.371094 C 328.6875 335.886719 328.6875 355.40625 328.6875 374.921875 C 273.609375 374.921875 218.527344 374.921875 163.449219 374.921875 C 162.894531 374.921875 162.34375 374.894531 161.789062 374.878906 C 161.699219 374.90625 161.605469 374.9375 161.515625 374.964844 C 161.007812 374.949219 160.5 374.925781 159.996094 374.925781 C 143.902344 374.921875 127.808594 374.925781 111.714844 374.921875 C 111.070312 374.921875 110.425781 374.878906 109.78125 374.859375 C 109.78125 374.859375 109.730469 374.886719 109.730469 374.886719 C 109.269531 374.898438 108.808594 374.921875 108.347656 374.921875 C 88.050781 374.925781 67.753906 374.925781 47.457031 374.925781 C 47.046875 374.925781 46.632812 374.925781 46.125 374.925781 C 46.289062 373.761719 47.035156 373.003906 47.585938 372.148438 C 47.808594 372.023438 47.851562 371.816406 47.859375 371.589844 C 48 371.546875 48.09375 371.453125 48.136719 371.3125 C 48.503906 371.316406 48.679688 371.121094 48.6875 370.757812 C 48.9375 370.652344 48.996094 370.453125 48.960938 370.203125 L 48.964844 370.199219 C 49.519531 370.203125 49.761719 369.890625 49.796875 369.367188 L 49.796875 369.371094 C 49.941406 369.332031 50.03125 369.238281 50.074219 369.09375 C 50.308594 368.980469 50.363281 368.777344 50.355469 368.539062 C 50.496094 368.496094 50.585938 368.402344 50.632812 368.261719 C 50.796875 368.195312 50.882812 368.070312 50.914062 367.898438 C 50.9375 367.371094 51.371094 367.121094 51.683594 366.796875 C 53.476562 364.941406 55.425781 363.261719 57.382812 361.582031 C 58.460938 360.65625 59.582031 359.757812 60.5625 358.71875 C 62.75 356.40625 65.132812 354.289062 67.484375 352.15625 C 71.941406 348.101562 76.683594 344.363281 81.945312 341.390625 C 86.242188 338.96875 90.761719 337.011719 95.558594 335.726562 C 98.308594 334.988281 101.027344 334.128906 103.796875 333.476562 C 105.980469 332.964844 108.199219 332.621094 110.441406 332.445312 C 111.585938 332.355469 112.714844 332.089844 113.871094 332.199219 C 114.433594 331.917969 115.042969 331.976562 115.636719 331.988281 C 117.683594 332.035156 119.660156 331.683594 121.628906 331.144531 C 126.601562 329.789062 131.285156 327.824219 135.476562 324.777344 C 139.660156 320.773438 143.410156 316.417969 146.269531 311.347656 C 146.515625 310.910156 146.867188 310.515625 146.890625 309.976562 C 146.050781 309.925781 145.460938 309.425781 144.875 308.890625 C 143.578125 307.707031 142.222656 306.625 140.738281 305.660156 C 134.84375 301.828125 129.085938 297.8125 124.160156 292.726562 C 121.609375 290.09375 119.285156 287.292969 117.214844 284.273438 C 113.941406 279.503906 112.132812 274.144531 110.785156 268.585938 C 109.417969 262.949219 108.84375 257.203125 108.371094 251.4375 C 107.789062 244.335938 106.832031 237.28125 105.652344 230.257812 C 104.808594 225.25 103.882812 220.246094 102.207031 215.425781 C 102.148438 215.253906 102.128906 215.066406 102.09375 214.882812 C 102.3125 214.636719 102.484375 214.671875 102.628906 214.792969 C 102.484375 214.671875 102.3125 214.636719 102.09375 214.882812 C 102.058594 214.851562 101.996094 214.808594 102 214.785156 C 102.222656 213.789062 102.230469 213.785156 101.671875 212.894531 C 99.9375 210.144531 98.726562 207.144531 97.550781 204.136719 C 96.539062 201.546875 95.292969 199.082031 93.925781 196.667969 C 90.636719 190.882812 87.671875 184.9375 85.382812 178.671875 C 83.617188 173.824219 82.582031 168.824219 82.476562 163.660156 C 82.398438 159.820312 83.027344 156.035156 83.75 152.269531 C 84.570312 147.96875 85.691406 143.722656 86.234375 139.367188 C 86.550781 136.808594 86.835938 134.246094 87.007812 131.667969 C 87.105469 130.195312 87.140625 128.722656 87.167969 127.25 C 87.199219 125.703125 86.902344 124.257812 86.195312 122.859375 C 84.734375 119.96875 83.496094 116.996094 82.957031 113.765625 C 82.726562 112.382812 82.691406 111.015625 82.792969 109.632812 C 82.605469 108.277344 82.871094 106.964844 83.347656 105.730469 C 84.34375 103.140625 84.898438 100.46875 85.105469 97.714844 C 85.246094 95.035156 85.585938 92.367188 85.558594 89.679688 C 84.253906 86.574219 82.878906 83.484375 82.417969 80.105469 C 81.894531 76.292969 82.339844 72.605469 84.316406 69.246094 C 87.464844 63.910156 90.375 58.445312 93.417969 53.050781 C 95.8125 48.816406 98.722656 44.914062 101.714844 41.101562 C 107.765625 33.394531 114.664062 26.507812 122.550781 20.683594 C 129.566406 15.507812 137.367188 11.921875 145.734375 9.4375 C 155.289062 6.605469 164.980469 4.609375 174.886719 3.589844 C 179.988281 3.066406 185.03125 2.125 190.085938 1.269531 C 194.277344 0.5625 198.488281 -0.0195312 202.765625 0.519531 C 206.496094 0.992188 210.105469 1.863281 213.523438 3.5 C 218.550781 5.90625 223.074219 9.117188 227.644531 12.253906 C 232.554688 15.625 237.4375 19.042969 242.292969 22.5 C 250.828125 28.570312 258.203125 35.859375 264.628906 44.117188 C 266.164062 46.089844 267.390625 48.265625 268.519531 50.5 C 271.824219 57.050781 274.183594 63.925781 275.886719 71.066406 C 279.480469 86.171875 282.703125 101.363281 286.34375 116.460938 C 288.027344 123.433594 288.972656 130.542969 289.875 137.652344 C 291.472656 150.171875 292.65625 162.742188 294.097656 175.28125 C 294.839844 181.753906 295.757812 188.210938 296.613281 194.671875 C 297.476562 201.183594 298.105469 207.71875 298.738281 214.253906 C 299.90625 226.308594 301.113281 238.359375 303.433594 250.269531 C 305.046875 258.539062 307.285156 266.636719 309.691406 274.699219 C 311.859375 281.960938 314.28125 289.148438 316.042969 296.527344 C 316.890625 300.074219 317.726562 303.628906 318.5625 307.183594 C 318.636719 307.496094 318.660156 307.820312 318.707031 308.140625 C 317.835938 307.824219 317.164062 307.222656 316.492188 306.632812 C 317.164062 307.222656 317.835938 307.824219 318.707031 308.140625 C 319.136719 308.546875 319.546875 308.980469 320.007812 309.355469 C 322.894531 311.703125 325.792969 314.035156 328.6875 316.371094 Z M 112.347656 109.835938 C 112.269531 109.800781 112.191406 109.765625 112.117188 109.730469 C 112.191406 109.765625 112.269531 109.800781 112.347656 109.835938 Z M 144.371094 304.472656 C 143.9375 303.773438 143.796875 303.269531 143.34375 302.953125 C 141.132812 299.265625 138.644531 295.765625 136.140625 292.269531 C 131.519531 285.8125 126.710938 279.480469 122.394531 272.800781 C 119.5 268.324219 117.039062 263.632812 115.015625 258.707031 C 114.882812 258.386719 114.796875 258.039062 114.433594 257.691406 C 114.414062 258.023438 114.386719 258.199219 114.398438 258.371094 C 114.464844 259.480469 114.535156 260.585938 114.609375 261.691406 C 115.289062 271.683594 119.089844 280.382812 125.511719 287.980469 C 127.75 290.628906 130.195312 293.082031 132.816406 295.363281 C 136.058594 298.183594 139.5625 300.675781 142.910156 303.363281 C 143.1875 303.824219 143.605469 304.097656 144.371094 304.472656 Z M 144.371094 304.472656 " fill-opacity="1" fill-rule="nonzero"/></g><path fill="#1b1a19" d="M 296.578125 295.65625 C 292.988281 295.183594 289.535156 294.210938 286.25 292.710938 C 284.808594 292.050781 283.382812 292.171875 281.917969 292.34375 C 279.386719 292.640625 276.847656 292.5625 274.316406 292.40625 C 272.714844 292.308594 271.121094 292.070312 269.515625 291.933594 C 263.84375 291.449219 258.449219 290.027344 253.578125 286.960938 C 251.664062 285.757812 249.835938 284.441406 248.203125 282.855469 C 246.5 281.199219 245.105469 279.320312 243.894531 277.292969 C 241.472656 273.234375 240.230469 268.785156 239.394531 264.164062 C 238.304688 258.128906 238.222656 252.058594 238.304688 245.964844 C 238.355469 242.183594 238.542969 238.410156 238.832031 234.636719 C 238.960938 232.9375 239 231.230469 239.085938 229.53125 C 239.1875 227.457031 239.335938 225.382812 239.5 223.320312 C 239.71875 220.480469 239.847656 217.625 240.191406 214.789062 C 240.390625 213.148438 240.191406 211.460938 240.28125 209.800781 C 240.449219 206.632812 240.570312 203.460938 241.023438 200.308594 C 241.304688 198.351562 241.433594 196.375 241.648438 194.410156 C 241.898438 192.125 242.179688 189.84375 242.417969 187.558594 C 242.640625 185.457031 242.835938 183.347656 243.023438 181.238281 C 243.160156 179.683594 243.558594 178.15625 243.582031 176.582031 C 243.585938 176.101562 243.890625 175.949219 244.3125 175.964844 C 245.203125 175.992188 246.054688 175.765625 246.890625 175.539062 C 250.804688 174.480469 253.910156 172.175781 256.535156 169.152344 C 259.363281 165.894531 261.160156 162.066406 262.714844 158.09375 C 263.84375 155.210938 265.238281 152.453125 266.753906 149.75 C 268.9375 145.859375 270.480469 141.722656 271.300781 137.328125 C 271.621094 135.609375 271.824219 133.882812 271.90625 132.125 C 272.03125 129.402344 271.347656 126.914062 270.25 124.496094 C 268.925781 121.570312 267.238281 118.894531 264.882812 116.664062 C 262.535156 114.4375 259.761719 113.34375 256.53125 113.207031 C 252.359375 113.03125 248.65625 114.320312 245.171875 116.503906 C 242.28125 118.3125 239.34375 120.050781 236.417969 121.808594 C 235.644531 122.273438 235.390625 122.265625 235.042969 121.628906 C 233.59375 118.988281 231.558594 116.757812 229.90625 114.25 C 228.042969 111.417969 226.644531 108.363281 225.28125 105.285156 C 223.058594 100.265625 221.050781 95.148438 218.515625 90.265625 C 214.8125 83.140625 209.996094 76.875 203.980469 71.574219 C 201.175781 69.109375 198.105469 66.96875 194.785156 65.210938 C 190.578125 62.988281 186.171875 61.222656 181.804688 59.363281 C 175.980469 56.886719 170.28125 54.160156 164.816406 50.960938 C 158.367188 47.183594 151.996094 43.269531 145.199219 40.117188 C 143.019531 39.109375 140.789062 38.222656 138.464844 37.636719 C 137.070312 37.285156 135.675781 37.339844 134.300781 38.035156 C 131.714844 39.347656 129.117188 40.679688 126.234375 41.25 C 124.65625 41.5625 123.078125 41.902344 121.542969 42.378906 C 117.945312 43.496094 114.644531 45.125 111.777344 47.664062 C 108.347656 50.703125 105.230469 54.023438 102.25 57.488281 C 98.441406 61.917969 95.230469 66.75 92.304688 71.78125 C 91.332031 73.460938 90.527344 75.230469 89.792969 77.027344 C 89.011719 78.949219 88.078125 80.804688 87.417969 82.78125 C 86.746094 84.800781 86.234375 86.847656 85.851562 88.933594 C 85.800781 89.207031 85.804688 89.492188 85.558594 89.679688 C 84.253906 86.574219 82.878906 83.484375 82.417969 80.105469 C 81.894531 76.292969 82.339844 72.605469 84.316406 69.246094 C 87.464844 63.910156 90.375 58.445312 93.417969 53.050781 C 95.8125 48.816406 98.722656 44.914062 101.714844 41.101562 C 107.765625 33.394531 114.664062 26.507812 122.550781 20.683594 C 129.566406 15.507812 137.367188 11.921875 145.734375 9.4375 C 155.289062 6.605469 164.980469 4.609375 174.886719 3.589844 C 179.988281 3.066406 185.03125 2.125 190.085938 1.269531 C 194.277344 0.5625 198.488281 -0.0195312 202.765625 0.519531 C 206.496094 0.992188 210.105469 1.863281 213.523438 3.5 C 218.550781 5.90625 223.074219 9.117188 227.644531 12.253906 C 232.554688 15.625 237.4375 19.042969 242.292969 22.5 C 250.828125 28.570312 258.203125 35.859375 264.628906 44.117188 C 266.164062 46.089844 267.390625 48.265625 268.519531 50.5 C 271.824219 57.050781 274.183594 63.925781 275.886719 71.066406 C 279.480469 86.171875 282.703125 101.363281 286.34375 116.460938 C 288.027344 123.433594 288.972656 130.542969 289.875 137.652344 C 291.472656 150.171875 292.660156 162.742188 294.097656 175.28125 C 294.839844 181.753906 295.757812 188.210938 296.613281 194.671875 C 297.476562 201.183594 298.105469 207.71875 298.738281 214.253906 C 299.90625 226.308594 301.113281 238.359375 303.433594 250.269531 C 305.046875 258.539062 307.285156 266.636719 309.691406 274.699219 C 311.859375 281.960938 314.28125 289.148438 316.042969 296.527344 C 316.890625 300.074219 317.726562 303.628906 318.5625 307.183594 C 318.636719 307.496094 318.660156 307.820312 318.707031 308.140625 C 317.546875 307.714844 316.738281 306.789062 315.8125 306.054688 C 312.242188 303.21875 308.699219 300.347656 305.179688 297.453125 C 304.292969 296.722656 303.34375 296.257812 302.207031 296.15625 C 300.332031 295.992188 298.453125 295.824219 296.578125 295.65625 Z M 245.839844 246.660156 C 245.730469 246.679688 245.625 246.699219 245.515625 246.71875 C 245.625 250.257812 245.347656 253.792969 245.742188 257.347656 C 246.175781 261.214844 246.949219 264.980469 248.253906 268.640625 C 248.921875 270.511719 249.609375 272.417969 250.804688 273.996094 C 253.074219 276.980469 255.753906 279.589844 258.816406 281.769531 C 263.15625 284.867188 268.011719 286.804688 273.179688 287.984375 C 274.570312 288.300781 276.007812 288.40625 277.421875 288.605469 C 277.042969 288.066406 276.585938 287.785156 276.140625 287.488281 C 273.90625 286.015625 271.816406 284.359375 269.785156 282.617188 C 267.398438 280.566406 265.199219 278.332031 263.101562 275.996094 C 261.199219 273.875 259.558594 271.527344 257.863281 269.230469 C 253.484375 263.300781 249.796875 256.992188 247.15625 250.09375 C 246.714844 248.949219 246.277344 247.804688 245.839844 246.660156 Z M 143.484375 246.972656 C 144.027344 246.945312 144.339844 247.1875 144.4375 247.734375 C 144.570312 248.503906 144.785156 249.261719 144.863281 250.03125 C 145.113281 252.457031 145.730469 254.816406 146.125 257.21875 C 146.605469 260.160156 147.148438 263.09375 147.65625 266.03125 C 147.949219 267.75 148.234375 269.46875 148.503906 271.191406 C 148.789062 273.003906 149.054688 274.816406 149.316406 276.632812 C 149.679688 279.175781 150.113281 281.710938 150.351562 284.269531 C 150.476562 285.59375 150.59375 286.925781 150.722656 288.25 C 151.019531 291.242188 150.933594 294.238281 151.011719 297.230469 C 151.082031 300.007812 150.320312 302.597656 149.492188 305.1875 C 149.035156 306.628906 148.03125 307.855469 147.878906 309.425781 C 147.828125 309.933594 147.324219 309.972656 146.890625 309.976562 C 146.050781 309.925781 145.460938 309.425781 144.875 308.890625 C 143.578125 307.707031 142.222656 306.625 140.738281 305.660156 C 134.84375 301.828125 129.085938 297.8125 124.160156 292.722656 C 121.609375 290.09375 119.285156 287.292969 117.214844 284.273438 C 113.941406 279.503906 112.132812 274.144531 110.785156 268.585938 C 109.417969 262.949219 108.84375 257.203125 108.371094 251.4375 C 107.789062 244.335938 106.832031 237.28125 105.652344 230.257812 C 104.808594 225.25 103.882812 220.246094 102.207031 215.425781 C 102.148438 215.253906 102.128906 215.066406 102.09375 214.882812 C 102.445312 214.488281 102.671875 214.820312 102.859375 215.050781 C 103.636719 216.023438 104.402344 217.003906 105.164062 217.988281 C 107.574219 221.117188 109.214844 224.671875 110.890625 228.222656 C 112.835938 232.347656 114.429688 236.648438 117.035156 240.453125 C 119.210938 243.625 122.121094 245.738281 125.652344 247.097656 C 128.476562 248.179688 131.382812 248.808594 134.421875 248.652344 C 136.121094 248.566406 137.800781 248.28125 139.460938 247.921875 C 140.808594 247.632812 142.144531 247.289062 143.484375 246.972656 Z M 142.910156 303.363281 C 143.1875 303.824219 143.605469 304.097656 144.371094 304.472656 C 143.9375 303.773438 143.796875 303.269531 143.34375 302.953125 C 141.132812 299.265625 138.644531 295.765625 136.140625 292.273438 C 131.519531 285.8125 126.710938 279.480469 122.394531 272.800781 C 119.5 268.324219 117.039062 263.632812 115.015625 258.707031 C 114.882812 258.386719 114.796875 258.039062 114.433594 257.691406 C 114.414062 258.023438 114.386719 258.199219 114.398438 258.371094 C 114.464844 259.480469 114.535156 260.585938 114.609375 261.691406 C 115.289062 271.683594 119.089844 280.382812 125.511719 287.980469 C 127.75 290.628906 130.195312 293.082031 132.816406 295.363281 C 136.058594 298.183594 139.5625 300.675781 142.910156 303.363281 Z M 142.910156 303.363281 " fill-opacity="1" fill-rule="nonzero"/><path fill="#543e26" d="M 144.074219 96.929688 C 144.453125 97.296875 144.238281 97.582031 144.109375 97.867188 C 142.890625 100.546875 141.96875 103.332031 141.210938 106.171875 C 141 106.964844 140.882812 107.78125 140.734375 108.589844 C 140.6875 108.851562 140.757812 109.183594 140.414062 109.273438 C 139.980469 109.390625 139.875 109.007812 139.734375 108.738281 C 139.09375 107.523438 139.171875 106.203125 139.5 104.972656 C 140.136719 102.617188 141.195312 100.414062 142.519531 98.359375 C 142.902344 97.769531 143.394531 97.207031 144.074219 96.929688 Z M 144.4375 247.734375 C 144.570312 248.503906 144.785156 249.261719 144.863281 250.03125 C 145.113281 252.457031 145.730469 254.816406 146.125 257.21875 C 146.605469 260.160156 147.148438 263.09375 147.65625 266.03125 C 147.949219 267.75 148.234375 269.46875 148.503906 271.191406 C 148.789062 273.003906 149.054688 274.816406 149.316406 276.632812 C 149.679688 279.175781 150.113281 281.710938 150.351562 284.269531 C 150.476562 285.59375 150.59375 286.925781 150.722656 288.25 C 151.019531 291.242188 150.933594 294.238281 151.011719 297.230469 C 151.082031 300.007812 150.320312 302.597656 149.492188 305.1875 C 149.035156 306.628906 148.03125 307.855469 147.878906 309.425781 C 147.828125 309.933594 147.324219 309.972656 146.890625 309.976562 C 146.867188 310.515625 146.515625 310.910156 146.269531 311.347656 C 143.410156 316.417969 139.660156 320.773438 135.476562 324.777344 C 135.765625 325.945312 135.976562 326.03125 136.878906 325.367188 C 138.621094 324.085938 140.15625 322.546875 141.882812 321.246094 C 145.304688 318.675781 148.753906 316.140625 152.425781 313.925781 C 156.292969 311.597656 160.097656 309.167969 163.964844 306.839844 C 167.113281 304.941406 169.875 302.578125 172.300781 299.847656 C 174.6875 297.160156 176.765625 294.222656 178.667969 291.171875 C 180.546875 288.160156 182.34375 285.101562 184.125 282.03125 C 186.039062 278.722656 188.101562 275.5 190.078125 272.226562 C 193.269531 266.933594 196.789062 261.855469 200.242188 256.734375 C 203.816406 251.429688 207.605469 246.269531 211.226562 240.992188 C 214.144531 236.734375 217 232.441406 219.59375 227.964844 C 222.488281 222.964844 225.082031 217.820312 227.351562 212.519531 C 229.636719 207.183594 231.710938 201.753906 233.445312 196.207031 C 234.96875 191.335938 237.101562 186.644531 237.886719 181.546875 C 238.078125 180.316406 238.316406 179.089844 238.53125 177.863281 C 236.824219 180.09375 235.296875 182.382812 234.035156 184.828125 C 232.28125 188.238281 230.753906 191.773438 228.839844 195.089844 C 225.964844 200.078125 222.894531 204.953125 219.6875 209.742188 C 218.355469 211.734375 217.117188 213.789062 215.503906 215.574219 C 213.011719 218.320312 210.144531 220.621094 207.074219 222.6875 C 203.175781 225.316406 199.207031 227.808594 195.09375 230.109375 C 189.828125 233.054688 184.324219 235.328125 178.476562 236.753906 C 173.792969 237.894531 169.070312 238.878906 164.402344 240.070312 C 160.035156 241.179688 155.726562 242.503906 151.371094 243.65625 C 148.863281 244.324219 146.5 245.332031 144.140625 246.371094 C 143.835938 246.507812 143.519531 246.566406 143.484375 246.972656 C 144.027344 246.945312 144.339844 247.1875 144.4375 247.734375 Z M 85.105469 97.714844 C 87.3125 97.078125 89.421875 96.15625 91.6875 95.675781 C 93.683594 95.25 95.515625 95.59375 97.324219 96.371094 C 100.347656 97.671875 102.289062 100.09375 103.902344 102.828125 C 104.511719 103.863281 105.183594 104.855469 105.972656 105.75 C 106.808594 106.695312 107.328125 107.828125 108.03125 108.847656 C 108.320312 109.273438 108.332031 109.707031 108.019531 110.132812 C 107.65625 110.632812 107.15625 110.824219 106.566406 110.675781 C 106.035156 110.542969 105.523438 110.296875 104.984375 110.195312 C 102.914062 109.804688 100.824219 109.519531 98.769531 109.066406 C 96.4375 108.550781 94.09375 108.109375 91.738281 107.8125 C 90.132812 107.613281 88.5 107.105469 86.824219 107.660156 C 86.128906 107.890625 85.4375 108.070312 84.800781 108.46875 C 84.144531 108.875 83.601562 109.488281 82.792969 109.632812 C 82.605469 108.277344 82.871094 106.964844 83.347656 105.730469 C 84.34375 103.140625 84.898438 100.46875 85.105469 97.714844 Z M 115.277344 185.386719 C 115.871094 185.40625 116.464844 185.355469 117.050781 185.582031 C 118.6875 186.210938 120.289062 185.894531 121.914062 185.433594 C 123.1875 185.074219 124.425781 184.605469 125.792969 184.523438 C 128.421875 184.367188 130.765625 185.316406 133.136719 186.183594 C 138.097656 187.992188 142.625 190.621094 147.042969 193.476562 C 149.59375 195.125 152.136719 196.808594 155.078125 197.726562 C 155.429688 197.835938 155.761719 198.023438 155.992188 198.328125 C 156.347656 198.796875 156.414062 199.320312 155.910156 199.671875 C 154.679688 200.523438 153.722656 201.652344 152.703125 202.710938 C 151.082031 204.394531 149.171875 205.664062 147.128906 206.734375 C 143.496094 208.640625 139.800781 210.4375 136.191406 212.386719 C 133.753906 213.699219 131.335938 215.015625 128.679688 215.851562 C 127.21875 216.3125 125.714844 216.679688 124.230469 216.691406 C 120.605469 216.707031 117.046875 216.117188 114.035156 213.898438 C 111.699219 212.179688 110.214844 209.925781 109.882812 206.875 C 109.71875 205.339844 110.007812 203.96875 110.316406 202.554688 C 110.433594 202.007812 110.367188 201.773438 109.832031 201.683594 C 109.742188 201.671875 109.660156 201.613281 109.574219 201.585938 C 107.558594 200.972656 107.425781 200.84375 107.46875 198.828125 C 107.535156 195.769531 108.097656 192.804688 109.332031 189.984375 C 110.058594 188.324219 111.324219 187.105469 112.636719 185.953125 C 113.363281 185.316406 114.34375 185.335938 115.277344 185.386719 Z M 118.191406 198.171875 C 118.21875 198.273438 118.246094 198.378906 118.273438 198.480469 C 119.007812 198.480469 119.769531 198.355469 120.476562 198.507812 C 122.195312 198.871094 123.949219 198.707031 125.683594 198.9375 C 127.214844 199.136719 128.789062 198.964844 130.355469 198.75 C 133.015625 198.386719 135.503906 197.527344 138.003906 196.5625 C 135.863281 196.085938 133.71875 196.140625 131.566406 196.351562 C 129.410156 196.5625 127.257812 196.605469 125.097656 196.320312 C 124.074219 196.183594 123.109375 195.796875 121.980469 196.09375 C 120.5 196.484375 119.378906 197.347656 118.191406 198.171875 Z M 147.164062 96.464844 C 146.5625 98.339844 145.992188 100.105469 145.40625 101.933594 C 146.042969 101.882812 146.066406 101.433594 146.207031 101.140625 C 147.398438 98.683594 148.910156 96.425781 150.515625 94.226562 C 150.878906 93.734375 151.328125 93.414062 151.917969 93.171875 C 155.34375 91.78125 158.90625 90.867188 162.472656 89.941406 C 164.25 89.476562 165.984375 88.847656 167.757812 88.355469 C 169.972656 87.742188 172.234375 87.414062 174.519531 87.121094 C 178.535156 86.609375 182.125 87.957031 185.703125 89.417969 C 188.179688 90.429688 190.558594 91.664062 192.9375 92.898438 C 195.5625 94.253906 198.085938 95.800781 200.363281 97.675781 C 201.917969 98.957031 203.488281 100.265625 204.835938 101.792969 C 204.898438 101.863281 204.96875 101.921875 205.027344 101.996094 C 205.277344 102.324219 205.625 102.671875 205.472656 103.097656 C 205.277344 103.648438 204.71875 103.503906 204.269531 103.53125 C 202.785156 103.617188 201.484375 102.957031 200.164062 102.449219 C 196.5 101.046875 192.71875 100.011719 188.90625 99.1875 C 186.546875 98.679688 184.09375 98.519531 181.683594 98.199219 C 180.179688 98 178.648438 98.164062 177.164062 97.75 C 176.648438 97.609375 176.019531 97.578125 175.515625 97.738281 C 174.125 98.175781 172.683594 97.941406 171.269531 98.1875 C 168.972656 98.589844 166.816406 99.34375 164.714844 100.28125 C 160.882812 101.992188 157.328125 104.242188 153.621094 106.1875 C 150.847656 107.644531 148.265625 109.46875 145.292969 110.539062 C 144.640625 110.773438 144.011719 111.03125 143.296875 111.03125 C 142.550781 111.03125 142.078125 110.75 141.828125 110.035156 C 141.484375 109.042969 141.445312 108.054688 141.738281 107.046875 C 142.40625 104.742188 143.105469 102.4375 144.199219 100.308594 C 145.132812 98.484375 145.570312 97.167969 147.164062 96.464844 Z M 138.164062 172.347656 C 137.058594 172.226562 135.816406 171.859375 134.636719 171.351562 C 133.011719 170.65625 131.363281 170.394531 129.675781 170.96875 C 127.761719 171.617188 125.949219 171.035156 124.125 170.628906 C 123.449219 170.476562 123.292969 169.320312 123.816406 168.625 C 124.3125 167.964844 125.03125 167.605469 125.785156 167.402344 C 127.984375 166.808594 130.175781 166.894531 132.253906 167.855469 C 134.429688 168.855469 136.53125 170.011719 138.738281 170.953125 C 139.117188 171.117188 139.742188 171.214844 139.53125 171.867188 C 139.351562 172.421875 138.808594 172.335938 138.164062 172.347656 Z M 114.390625 111.40625 C 113.6875 111.53125 113.539062 111.039062 113.226562 110.816406 C 113.042969 110.6875 112.773438 110.410156 112.652344 110.605469 C 112.085938 111.519531 111.875 110.835938 111.597656 110.417969 C 111.160156 109.753906 110.550781 109.25 109.988281 108.710938 C 107.449219 106.28125 105.265625 103.5625 103.320312 100.644531 C 102.910156 100.023438 102.582031 99.371094 102.382812 98.652344 C 102.320312 98.429688 102.199219 98.195312 102.472656 98.058594 C 102.703125 97.945312 102.925781 98.050781 103.101562 98.21875 C 103.574219 98.667969 103.863281 99.25 104.207031 99.792969 C 104.847656 100.800781 105.496094 101.808594 106.144531 102.8125 C 106.273438 103.011719 106.421875 103.179688 106.871094 103.089844 C 106.082031 101.636719 105.320312 100.199219 105 98.589844 C 106.023438 98.851562 106.042969 98.839844 106.433594 99.539062 C 108.410156 103.074219 110.714844 106.398438 113.039062 109.710938 C 113.429688 110.269531 114.058594 110.636719 114.390625 111.40625 Z M 107.742188 104.636719 C 107.785156 104.773438 107.828125 104.796875 107.851562 104.703125 C 107.855469 104.691406 107.777344 104.660156 107.738281 104.640625 C 107.714844 104.511719 107.710938 104.371094 107.65625 104.253906 C 107.585938 104.109375 107.472656 103.894531 107.285156 104.070312 C 107.140625 104.203125 107.207031 104.410156 107.371094 104.519531 C 107.472656 104.589844 107.617188 104.601562 107.742188 104.636719 Z M 112.347656 109.835938 C 112.269531 109.800781 112.191406 109.765625 112.117188 109.734375 C 112.082031 109.808594 112.003906 109.90625 112.027344 109.960938 C 112.050781 110.019531 112.171875 110.035156 112.246094 110.070312 C 112.28125 109.992188 112.316406 109.914062 112.347656 109.835938 Z M 110.230469 166.359375 C 110.519531 166.34375 110.640625 166.546875 110.757812 166.742188 C 111.214844 167.492188 111.753906 168.167969 112.355469 168.816406 C 113.371094 169.914062 114.667969 170.632812 115.828125 171.53125 C 116.378906 171.960938 116.875 172.433594 117.300781 172.980469 C 117.480469 173.210938 117.492188 173.519531 117.34375 173.769531 C 117.175781 174.050781 116.875 174 116.597656 173.96875 C 114.800781 173.753906 113.605469 172.660156 112.730469 171.191406 C 112.371094 170.585938 111.980469 170.03125 111.464844 169.566406 C 110.671875 168.851562 110.367188 167.878906 110.039062 166.917969 C 109.96875 166.707031 109.933594 166.457031 110.230469 166.359375 Z M 110.230469 166.359375 " fill-opacity="1" fill-rule="nonzero"/><path fill="#70583a" d="M 161.515625 374.964844 C 161.007812 374.949219 160.5 374.925781 159.996094 374.925781 C 143.902344 374.921875 127.808594 374.925781 111.714844 374.921875 C 111.070312 374.921875 110.425781 374.878906 109.78125 374.859375 C 109.78125 374.859375 109.730469 374.886719 109.730469 374.886719 C 109.683594 374.058594 109.644531 373.230469 109.582031 372.402344 C 108.882812 363.34375 109.28125 354.328125 110.65625 345.351562 C 111.34375 340.875 112.445312 336.496094 113.871094 332.199219 C 114.433594 331.917969 115.042969 331.976562 115.636719 331.988281 C 117.683594 332.035156 119.660156 331.683594 121.628906 331.144531 C 126.601562 329.789062 131.285156 327.824219 135.476562 324.777344 C 135.765625 325.945312 135.976562 326.03125 136.878906 325.367188 C 138.621094 324.085938 140.160156 322.546875 141.882812 321.246094 C 145.304688 318.675781 148.753906 316.140625 152.425781 313.925781 C 156.292969 311.597656 160.097656 309.167969 163.964844 306.839844 C 167.113281 304.941406 169.875 302.578125 172.300781 299.847656 C 174.6875 297.160156 176.765625 294.222656 178.667969 291.171875 C 180.546875 288.160156 182.34375 285.101562 184.125 282.03125 C 186.039062 278.722656 188.101562 275.5 190.078125 272.226562 C 193.269531 266.933594 196.789062 261.855469 200.242188 256.734375 C 203.816406 251.429688 207.605469 246.269531 211.226562 240.992188 C 214.144531 236.734375 217 232.441406 219.59375 227.964844 C 222.488281 222.964844 225.082031 217.820312 227.351562 212.519531 C 229.636719 207.183594 231.710938 201.753906 233.445312 196.207031 C 234.96875 191.335938 237.101562 186.644531 237.886719 181.546875 C 238.078125 180.316406 238.316406 179.089844 238.53125 177.863281 C 236.824219 180.09375 235.296875 182.382812 234.039062 184.828125 C 232.28125 188.238281 230.753906 191.773438 228.839844 195.089844 C 225.964844 200.078125 222.894531 204.953125 219.6875 209.742188 C 218.355469 211.734375 217.117188 213.789062 215.503906 215.574219 C 213.011719 218.320312 210.144531 220.621094 207.074219 222.6875 C 203.179688 225.316406 199.207031 227.8125 195.09375 230.109375 C 189.828125 233.054688 184.324219 235.328125 178.476562 236.753906 C 173.792969 237.894531 169.070312 238.878906 164.402344 240.070312 C 160.035156 241.179688 155.726562 242.503906 151.371094 243.65625 C 148.863281 244.324219 146.5 245.332031 144.140625 246.371094 C 143.835938 246.507812 143.519531 246.566406 143.484375 246.972656 C 142.144531 247.289062 140.808594 247.632812 139.460938 247.921875 C 137.800781 248.28125 136.121094 248.566406 134.421875 248.652344 C 131.382812 248.808594 128.476562 248.179688 125.652344 247.097656 C 122.121094 245.738281 119.210938 243.625 117.035156 240.453125 C 114.429688 236.648438 112.835938 232.347656 110.890625 228.222656 C 109.214844 224.671875 107.574219 221.117188 105.164062 217.988281 C 104.402344 217.003906 103.636719 216.023438 102.859375 215.050781 C 102.671875 214.820312 102.445312 214.488281 102.09375 214.882812 C 102.058594 214.851562 101.996094 214.808594 102 214.785156 C 102.222656 213.789062 102.230469 213.785156 101.671875 212.894531 C 99.9375 210.144531 98.726562 207.144531 97.550781 204.136719 C 96.539062 201.546875 95.292969 199.082031 93.925781 196.667969 C 90.636719 190.882812 87.671875 184.941406 85.382812 178.671875 C 83.617188 173.824219 82.582031 168.824219 82.476562 163.660156 C 82.398438 159.820312 83.027344 156.035156 83.75 152.269531 C 84.570312 147.96875 85.691406 143.722656 86.234375 139.367188 C 86.550781 136.808594 86.835938 134.246094 87.007812 131.667969 C 87.105469 130.195312 87.140625 128.722656 87.167969 127.25 C 87.199219 125.703125 86.902344 124.257812 86.195312 122.859375 C 84.734375 119.96875 83.496094 116.996094 82.957031 113.765625 C 82.726562 112.382812 82.691406 111.015625 82.792969 109.632812 C 83.601562 109.488281 84.144531 108.875 84.800781 108.46875 C 85.4375 108.070312 86.128906 107.890625 86.824219 107.660156 C 88.5 107.105469 90.132812 107.613281 91.738281 107.8125 C 94.09375 108.109375 96.4375 108.550781 98.769531 109.066406 C 100.824219 109.519531 102.914062 109.804688 104.984375 110.195312 C 105.523438 110.296875 106.035156 110.542969 106.566406 110.675781 C 107.15625 110.820312 107.65625 110.632812 108.019531 110.132812 C 108.332031 109.707031 108.320312 109.273438 108.03125 108.847656 C 107.332031 107.824219 106.808594 106.695312 105.972656 105.75 C 105.183594 104.855469 104.511719 103.863281 103.902344 102.828125 C 102.289062 100.09375 100.347656 97.671875 97.324219 96.371094 C 95.515625 95.59375 93.683594 95.25 91.6875 95.675781 C 89.421875 96.15625 87.3125 97.078125 85.105469 97.714844 C 85.246094 95.035156 85.585938 92.367188 85.558594 89.679688 C 85.804688 89.492188 85.800781 89.207031 85.851562 88.933594 C 86.234375 86.847656 86.746094 84.800781 87.417969 82.78125 C 88.078125 80.804688 89.011719 78.949219 89.792969 77.027344 C 90.527344 75.230469 91.332031 73.457031 92.304688 71.78125 C 95.230469 66.75 98.441406 61.914062 102.25 57.488281 C 105.230469 54.023438 108.347656 50.703125 111.777344 47.664062 C 114.644531 45.125 117.945312 43.496094 121.542969 42.378906 C 123.078125 41.902344 124.65625 41.5625 126.234375 41.25 C 129.117188 40.679688 131.714844 39.347656 134.300781 38.035156 C 135.675781 37.339844 137.070312 37.285156 138.464844 37.636719 C 140.789062 38.222656 143.019531 39.109375 145.199219 40.117188 C 151.996094 43.269531 158.367188 47.183594 164.816406 50.960938 C 170.28125 54.160156 175.980469 56.886719 181.804688 59.363281 C 186.171875 61.222656 190.578125 62.988281 194.785156 65.210938 C 198.105469 66.96875 201.175781 69.109375 203.980469 71.574219 C 209.996094 76.875 214.8125 83.140625 218.515625 90.265625 C 221.050781 95.148438 223.058594 100.265625 225.28125 105.285156 C 226.644531 108.363281 228.042969 111.417969 229.90625 114.25 C 231.558594 116.757812 233.59375 118.988281 235.042969 121.628906 C 235.390625 122.265625 235.644531 122.273438 236.417969 121.808594 C 239.34375 120.050781 242.28125 118.3125 245.171875 116.503906 C 248.65625 114.320312 252.359375 113.03125 256.53125 113.207031 C 259.761719 113.34375 262.535156 114.4375 264.882812 116.664062 C 267.238281 118.894531 268.925781 121.570312 270.253906 124.496094 C 271.347656 126.914062 272.03125 129.402344 271.90625 132.125 C 271.824219 133.882812 271.621094 135.609375 271.300781 137.328125 C 270.480469 141.722656 268.9375 145.859375 266.753906 149.75 C 265.238281 152.453125 263.84375 155.210938 262.714844 158.09375 C 261.160156 162.066406 259.363281 165.890625 256.535156 169.152344 C 253.910156 172.175781 250.804688 174.480469 246.890625 175.539062 C 246.054688 175.765625 245.203125 175.992188 244.3125 175.964844 C 243.890625 175.949219 243.585938 176.101562 243.582031 176.582031 C 243.558594 178.15625 243.160156 179.679688 243.023438 181.238281 C 242.835938 183.347656 242.640625 185.457031 242.417969 187.558594 C 242.179688 189.84375 241.898438 192.125 241.648438 194.410156 C 241.433594 196.375 241.304688 198.351562 241.023438 200.308594 C 240.570312 203.460938 240.449219 206.632812 240.28125 209.800781 C 240.191406 211.460938 240.390625 213.148438 240.191406 214.789062 C 239.847656 217.625 239.71875 220.480469 239.5 223.320312 C 239.335938 225.382812 239.1875 227.457031 239.085938 229.53125 C 239 231.230469 238.960938 232.9375 238.832031 234.636719 C 238.546875 238.410156 238.355469 242.183594 238.304688 245.964844 C 238.222656 252.058594 238.304688 258.128906 239.394531 264.164062 C 240.230469 268.785156 241.472656 273.234375 243.894531 277.292969 C 245.105469 279.320312 246.5 281.199219 248.203125 282.855469 C 249.835938 284.441406 251.664062 285.757812 253.578125 286.960938 C 258.449219 290.027344 263.84375 291.449219 269.515625 291.933594 C 271.121094 292.070312 272.714844 292.308594 274.316406 292.40625 C 276.847656 292.5625 279.386719 292.640625 281.917969 292.34375 C 283.382812 292.171875 284.808594 292.050781 286.25 292.710938 C 289.535156 294.210938 292.988281 295.183594 296.578125 295.65625 C 294.171875 296.933594 291.679688 298.019531 289.261719 299.277344 C 282.910156 302.578125 276.75 306.207031 270.617188 309.882812 C 263.253906 314.296875 256.054688 318.96875 248.96875 323.808594 C 240.4375 329.636719 232.027344 335.636719 223.488281 341.457031 C 218.035156 345.175781 212.449219 348.675781 206.832031 352.136719 C 202 355.113281 197.109375 357.996094 192.109375 360.675781 C 187.921875 362.921875 183.648438 365.019531 179.285156 366.917969 C 176.28125 368.226562 173.308594 369.601562 170.316406 370.9375 C 167.875 372.027344 165.421875 373.101562 162.984375 374.199219 C 162.570312 374.386719 162.117188 374.527344 161.789062 374.878906 C 161.699219 374.90625 161.605469 374.9375 161.515625 374.964844 Z M 115.277344 185.386719 C 114.34375 185.335938 113.363281 185.316406 112.636719 185.953125 C 111.324219 187.105469 110.058594 188.324219 109.332031 189.984375 C 108.097656 192.804688 107.535156 195.769531 107.46875 198.828125 C 107.425781 200.84375 107.558594 200.972656 109.574219 201.585938 C 109.660156 201.613281 109.742188 201.671875 109.832031 201.683594 C 110.367188 201.773438 110.433594 202.007812 110.316406 202.554688 C 110.007812 203.96875 109.71875 205.339844 109.882812 206.875 C 110.214844 209.925781 111.699219 212.179688 114.035156 213.898438 C 117.046875 216.117188 120.605469 216.710938 124.230469 216.691406 C 125.714844 216.683594 127.21875 216.3125 128.679688 215.851562 C 131.335938 215.015625 133.753906 213.699219 136.191406 212.386719 C 139.800781 210.4375 143.496094 208.640625 147.128906 206.734375 C 149.171875 205.664062 151.078125 204.394531 152.703125 202.710938 C 153.722656 201.652344 154.679688 200.523438 155.910156 199.671875 C 156.414062 199.320312 156.347656 198.796875 155.992188 198.328125 C 155.761719 198.023438 155.429688 197.835938 155.078125 197.726562 C 152.136719 196.808594 149.59375 195.125 147.042969 193.476562 C 142.625 190.621094 138.097656 187.992188 133.136719 186.183594 C 130.765625 185.316406 128.421875 184.367188 125.792969 184.523438 C 124.425781 184.605469 123.1875 185.074219 121.914062 185.433594 C 120.289062 185.894531 118.6875 186.210938 117.050781 185.582031 C 116.464844 185.355469 115.871094 185.40625 115.277344 185.386719 Z M 147.164062 96.464844 C 145.570312 97.167969 145.132812 98.484375 144.199219 100.308594 C 143.105469 102.4375 142.40625 104.746094 141.738281 107.046875 C 141.445312 108.054688 141.484375 109.042969 141.828125 110.035156 C 142.078125 110.75 142.550781 111.03125 143.296875 111.03125 C 144.011719 111.03125 144.644531 110.773438 145.292969 110.539062 C 148.265625 109.46875 150.847656 107.644531 153.621094 106.1875 C 157.332031 104.242188 160.882812 101.992188 164.714844 100.28125 C 166.816406 99.34375 168.972656 98.589844 171.269531 98.1875 C 172.683594 97.941406 174.125 98.179688 175.515625 97.738281 C 176.019531 97.578125 176.648438 97.609375 177.164062 97.75 C 178.648438 98.164062 180.179688 98 181.683594 98.199219 C 184.09375 98.519531 186.546875 98.679688 188.90625 99.1875 C 192.71875 100.011719 196.5 101.046875 200.164062 102.449219 C 201.484375 102.957031 202.785156 103.617188 204.273438 103.53125 C 204.71875 103.503906 205.277344 103.648438 205.472656 103.097656 C 205.628906 102.671875 205.277344 102.324219 205.027344 101.996094 C 204.96875 101.921875 204.898438 101.863281 204.835938 101.792969 C 203.488281 100.265625 201.917969 98.957031 200.363281 97.675781 C 198.085938 95.800781 195.5625 94.253906 192.9375 92.898438 C 190.558594 91.664062 188.179688 90.429688 185.703125 89.417969 C 182.125 87.957031 178.535156 86.609375 174.519531 87.121094 C 172.234375 87.414062 169.972656 87.742188 167.757812 88.355469 C 165.984375 88.847656 164.25 89.476562 162.472656 89.941406 C 158.90625 90.867188 155.34375 91.78125 151.917969 93.171875 C 151.328125 93.414062 150.878906 93.734375 150.515625 94.226562 C 148.910156 96.425781 147.398438 98.683594 146.207031 101.140625 C 146.066406 101.433594 146.042969 101.882812 145.40625 101.933594 C 145.992188 100.105469 146.5625 98.339844 147.164062 96.464844 Z M 119.367188 105.164062 C 119.367188 105.269531 119.359375 105.453125 119.367188 105.636719 C 119.46875 107.375 120.941406 109.058594 122.585938 109.320312 C 124.175781 109.578125 125.941406 108.433594 126.589844 106.769531 C 126.988281 105.742188 127.003906 104.679688 126.828125 103.640625 C 126.453125 101.390625 124.058594 100.101562 122.347656 100.65625 C 120.65625 101.203125 119.171875 103.042969 119.367188 105.164062 Z M 138.164062 172.347656 C 138.808594 172.335938 139.351562 172.421875 139.53125 171.867188 C 139.742188 171.214844 139.117188 171.117188 138.738281 170.953125 C 136.53125 170.011719 134.429688 168.855469 132.253906 167.855469 C 130.175781 166.894531 127.984375 166.808594 125.785156 167.402344 C 125.03125 167.605469 124.3125 167.964844 123.816406 168.625 C 123.292969 169.320312 123.449219 170.476562 124.125 170.628906 C 125.949219 171.035156 127.761719 171.617188 129.675781 170.96875 C 131.363281 170.394531 133.011719 170.65625 134.636719 171.351562 C 135.816406 171.859375 137.058594 172.226562 138.164062 172.347656 Z M 114.390625 111.40625 C 114.058594 110.636719 113.429688 110.269531 113.039062 109.710938 C 110.714844 106.398438 108.410156 103.074219 106.433594 99.535156 C 106.042969 98.839844 106.023438 98.851562 105 98.589844 C 105.320312 100.199219 106.082031 101.636719 106.871094 103.089844 C 106.421875 103.179688 106.273438 103.011719 106.144531 102.8125 C 105.496094 101.808594 104.847656 100.800781 104.207031 99.792969 C 103.863281 99.25 103.574219 98.667969 103.101562 98.21875 C 102.925781 98.050781 102.703125 97.945312 102.472656 98.058594 C 102.199219 98.195312 102.320312 98.429688 102.382812 98.652344 C 102.585938 99.371094 102.910156 100.023438 103.320312 100.644531 C 105.265625 103.5625 107.449219 106.28125 109.988281 108.710938 C 110.554688 109.25 111.160156 109.753906 111.597656 110.417969 C 111.875 110.835938 112.085938 111.519531 112.652344 110.605469 C 112.773438 110.410156 113.042969 110.6875 113.226562 110.816406 C 113.539062 111.039062 113.6875 111.53125 114.390625 111.40625 Z M 144.074219 96.929688 C 143.394531 97.207031 142.902344 97.769531 142.519531 98.359375 C 141.195312 100.414062 140.136719 102.617188 139.5 104.972656 C 139.171875 106.203125 139.09375 107.523438 139.734375 108.738281 C 139.875 109.007812 139.980469 109.390625 140.414062 109.273438 C 140.757812 109.183594 140.6875 108.851562 140.734375 108.589844 C 140.882812 107.78125 141 106.964844 141.210938 106.171875 C 141.96875 103.332031 142.890625 100.546875 144.109375 97.867188 C 144.238281 97.582031 144.453125 97.296875 144.074219 96.929688 Z M 110.230469 166.359375 C 109.933594 166.457031 109.96875 166.707031 110.039062 166.917969 C 110.367188 167.878906 110.671875 168.851562 111.464844 169.566406 C 111.980469 170.03125 112.371094 170.585938 112.730469 171.191406 C 113.605469 172.660156 114.800781 173.753906 116.597656 173.96875 C 116.875 174 117.175781 174.050781 117.34375 173.769531 C 117.492188 173.519531 117.480469 173.210938 117.300781 172.980469 C 116.875 172.433594 116.378906 171.960938 115.828125 171.53125 C 114.667969 170.632812 113.371094 169.914062 112.355469 168.816406 C 111.753906 168.167969 111.214844 167.492188 110.757812 166.742188 C 110.640625 166.546875 110.519531 166.34375 110.230469 166.359375 Z M 117.769531 111.019531 C 118.480469 110.996094 119.050781 110.402344 119.0625 109.667969 C 119.074219 108.929688 118.507812 108.328125 117.792969 108.3125 C 117.042969 108.300781 116.398438 108.96875 116.425781 109.738281 C 116.449219 110.46875 117.050781 111.042969 117.769531 111.019531 Z M 122.585938 111.90625 C 122.597656 111.261719 122.011719 110.691406 121.355469 110.714844 C 120.746094 110.734375 120.257812 111.246094 120.253906 111.875 C 120.246094 112.558594 120.789062 113.089844 121.46875 113.066406 C 122.078125 113.042969 122.574219 112.53125 122.585938 111.90625 Z M 125.9375 113.109375 C 126.550781 113.105469 127.066406 112.589844 127.070312 111.96875 C 127.078125 111.351562 126.574219 110.820312 125.960938 110.796875 C 125.289062 110.769531 124.722656 111.335938 124.753906 112.007812 C 124.78125 112.621094 125.304688 113.109375 125.9375 113.109375 Z M 128.234375 109.917969 C 128.882812 109.902344 129.355469 109.410156 129.351562 108.761719 C 129.347656 108.132812 128.847656 107.617188 128.226562 107.597656 C 127.558594 107.578125 126.988281 108.164062 127.027344 108.839844 C 127.058594 109.457031 127.589844 109.933594 128.234375 109.917969 Z M 245.515625 246.71875 C 245.625 250.257812 245.347656 253.792969 245.742188 257.347656 C 246.175781 261.214844 246.949219 264.980469 248.253906 268.640625 C 248.921875 270.511719 249.609375 272.417969 250.804688 273.996094 C 253.074219 276.980469 255.753906 279.589844 258.816406 281.769531 C 263.15625 284.867188 268.011719 286.804688 273.179688 287.984375 C 274.570312 288.300781 276.007812 288.40625 277.421875 288.605469 C 277.042969 288.066406 276.589844 287.785156 276.140625 287.488281 C 273.90625 286.015625 271.816406 284.359375 269.785156 282.617188 C 267.398438 280.566406 265.199219 278.332031 263.101562 275.996094 C 261.199219 273.875 259.558594 271.527344 257.863281 269.230469 C 253.484375 263.300781 249.796875 256.992188 247.15625 250.09375 C 246.714844 248.949219 246.277344 247.804688 245.839844 246.660156 C 245.730469 246.679688 245.625 246.699219 245.515625 246.71875 Z M 118.273438 198.480469 C 119.007812 198.480469 119.769531 198.355469 120.476562 198.507812 C 122.195312 198.871094 123.949219 198.707031 125.683594 198.9375 C 127.214844 199.136719 128.789062 198.964844 130.355469 198.75 C 133.015625 198.386719 135.503906 197.527344 138.003906 196.5625 C 135.863281 196.085938 133.71875 196.140625 131.566406 196.351562 C 129.410156 196.5625 127.257812 196.605469 125.097656 196.320312 C 124.074219 196.183594 123.109375 195.796875 121.980469 196.09375 C 120.5 196.484375 119.378906 197.347656 118.191406 198.171875 C 118.21875 198.273438 118.246094 198.378906 118.273438 198.480469 Z M 107.738281 104.640625 C 107.714844 104.511719 107.710938 104.371094 107.65625 104.253906 C 107.585938 104.109375 107.472656 103.894531 107.285156 104.070312 C 107.140625 104.203125 107.207031 104.410156 107.371094 104.519531 C 107.472656 104.589844 107.617188 104.601562 107.742188 104.636719 Z M 112.117188 109.734375 C 112.082031 109.808594 112.003906 109.90625 112.027344 109.960938 C 112.050781 110.019531 112.171875 110.035156 112.246094 110.070312 C 112.28125 109.992188 112.316406 109.914062 112.347656 109.835938 C 112.269531 109.800781 112.191406 109.765625 112.117188 109.734375 Z M 107.742188 104.636719 C 107.785156 104.773438 107.828125 104.796875 107.851562 104.703125 C 107.851562 104.691406 107.777344 104.660156 107.738281 104.640625 C 107.738281 104.640625 107.742188 104.636719 107.742188 104.636719 Z M 107.742188 104.636719 " fill-opacity="1" fill-rule="nonzero"/><g clip-path="url(#c63c967e65)"><path fill="#fbf1e8" d="M 238.761719 200.5625 C 238.410156 201.910156 237.207031 203.101562 236 203.101562 C 234.789062 203.101562 234.300781 202.34375 235.027344 201.527344 C 235.753906 200.710938 237.046875 199.621094 237.878906 199.085938 C 238.714844 198.550781 239.109375 199.214844 238.761719 200.5625 Z M 241.175781 197.574219 C 240.21875 197.859375 239.15625 199.199219 238.8125 200.554688 C 238.464844 201.90625 239.222656 203.101562 240.429688 203.101562 C 241.640625 203.101562 242.671875 201.679688 242.765625 200.042969 C 242.855469 198.40625 242.128906 197.289062 241.175781 197.574219 Z M 244.800781 197.050781 C 243.761719 197.050781 242.855469 198.40625 242.765625 200.042969 C 242.671875 201.679688 243.597656 203.101562 244.804688 203.101562 C 246.011719 203.101562 246.9375 201.679688 246.84375 200.046875 C 246.746094 198.410156 245.839844 197.054688 244.800781 197.050781 Z M 248.425781 197.585938 C 247.46875 197.300781 246.746094 198.410156 246.84375 200.046875 C 246.9375 201.679688 247.972656 203.101562 249.179688 203.101562 C 250.386719 203.101562 251.144531 201.910156 250.792969 200.5625 C 250.445312 199.214844 249.378906 197.875 248.425781 197.585938 Z M 251.671875 199.085938 C 250.839844 198.554688 250.445312 199.214844 250.792969 200.5625 C 251.144531 201.910156 252.347656 203.101562 253.554688 203.101562 C 254.761719 203.101562 255.253906 202.34375 254.523438 201.527344 C 253.796875 200.710938 252.507812 199.621094 251.671875 199.085938 Z M 235.472656 203.539062 C 234.464844 203.585938 233.1875 204.359375 232.757812 205.351562 C 232.328125 206.34375 233.039062 207.164062 234.207031 207.109375 C 235.371094 207.054688 236.460938 206.148438 236.730469 205.164062 C 237.003906 204.179688 236.480469 203.488281 235.472656 203.539062 Z M 240.707031 204.972656 C 240.59375 205.953125 239.597656 206.855469 238.429688 206.910156 C 237.265625 206.964844 236.460938 206.148438 236.730469 205.164062 C 237.003906 204.179688 238.113281 203.414062 239.121094 203.363281 C 240.132812 203.316406 240.816406 203.996094 240.707031 204.972656 Z M 244.679688 204.785156 C 244.726562 205.753906 243.820312 206.652344 242.652344 206.707031 C 241.488281 206.765625 240.59375 205.953125 240.707031 204.972656 C 240.816406 203.996094 241.765625 203.238281 242.773438 203.191406 C 243.78125 203.144531 244.632812 203.816406 244.679688 204.785156 Z M 248.652344 204.597656 C 248.855469 205.558594 248.042969 206.453125 246.878906 206.507812 C 245.710938 206.5625 244.726562 205.753906 244.679688 204.785156 C 244.632812 203.816406 245.417969 203.066406 246.425781 203.019531 C 247.433594 202.96875 248.449219 203.636719 248.652344 204.597656 Z M 252.625 204.410156 C 252.988281 205.363281 252.265625 206.253906 251.101562 206.308594 C 249.933594 206.363281 248.855469 205.558594 248.652344 204.597656 C 248.449219 203.636719 249.066406 202.894531 250.074219 202.84375 C 251.085938 202.796875 252.261719 203.453125 252.625 204.410156 Z M 256.597656 204.222656 C 257.121094 205.167969 256.488281 206.054688 255.324219 206.109375 C 254.15625 206.164062 252.988281 205.363281 252.625 204.410156 C 252.261719 203.453125 252.71875 202.71875 253.726562 202.671875 C 254.734375 202.625 256.078125 203.273438 256.597656 204.222656 Z M 236.070312 208.96875 C 235.976562 210.078125 234.992188 211.070312 233.753906 211.128906 C 232.515625 211.1875 231.511719 210.292969 231.675781 209.179688 C 231.835938 208.0625 233.039062 207.164062 234.207031 207.109375 C 235.371094 207.054688 236.160156 207.859375 236.070312 208.96875 Z M 240.460938 208.761719 C 240.445312 209.867188 239.472656 210.859375 238.234375 210.917969 C 236.996094 210.976562 235.976562 210.078125 236.070312 208.96875 C 236.160156 207.859375 237.265625 206.964844 238.429688 206.910156 C 239.597656 206.855469 240.480469 207.65625 240.460938 208.761719 Z M 244.855469 208.554688 C 244.910156 209.65625 243.953125 210.644531 242.714844 210.703125 C 241.476562 210.761719 240.445312 209.867188 240.460938 208.761719 C 240.480469 207.652344 241.488281 206.765625 242.652344 206.707031 C 243.820312 206.652344 244.804688 207.449219 244.855469 208.554688 Z M 249.25 208.34375 C 249.375 209.445312 248.429688 210.433594 247.195312 210.492188 C 245.957031 210.550781 244.910156 209.65625 244.855469 208.554688 C 244.804688 207.449219 245.710938 206.5625 246.878906 206.507812 C 248.042969 206.453125 249.128906 207.246094 249.25 208.34375 Z M 253.644531 208.136719 C 253.839844 209.234375 252.910156 210.222656 251.675781 210.28125 C 250.4375 210.339844 249.375 209.445312 249.25 208.34375 C 249.128906 207.246094 249.933594 206.363281 251.101562 206.308594 C 252.265625 206.253906 253.453125 207.039062 253.644531 208.136719 Z M 258.039062 207.929688 C 258.308594 209.019531 257.390625 210.007812 256.152344 210.066406 C 254.917969 210.125 253.839844 209.234375 253.644531 208.136719 C 253.449219 207.039062 254.15625 206.164062 255.324219 206.109375 C 256.488281 206.054688 257.773438 206.835938 258.039062 207.929688 Z M 113.871094 332.199219 C 112.445312 336.496094 111.34375 340.875 110.65625 345.351562 C 109.28125 354.328125 108.882812 363.34375 109.582031 372.402344 C 109.644531 373.230469 109.683594 374.058594 109.730469 374.886719 C 109.269531 374.898438 108.808594 374.921875 108.347656 374.921875 C 88.050781 374.925781 67.753906 374.925781 47.457031 374.925781 C 47.046875 374.925781 46.632812 374.925781 46.125 374.925781 C 46.292969 373.761719 47.035156 373.003906 47.585938 372.148438 C 47.808594 372.023438 47.851562 371.8125 47.863281 371.582031 C 47.863281 371.582031 47.847656 371.597656 47.847656 371.597656 C 48 371.554688 48.09375 371.457031 48.136719 371.308594 C 48.136719 371.308594 48.128906 371.3125 48.128906 371.3125 C 48.503906 371.316406 48.679688 371.121094 48.6875 370.753906 C 48.6875 370.753906 48.6875 370.757812 48.6875 370.757812 C 48.9375 370.652344 48.996094 370.453125 48.960938 370.203125 C 48.960938 370.203125 48.964844 370.199219 48.964844 370.199219 C 49.519531 370.203125 49.761719 369.890625 49.796875 369.367188 C 49.796875 369.367188 49.796875 369.371094 49.796875 369.371094 C 49.945312 369.332031 50.035156 369.234375 50.078125 369.089844 C 50.078125 369.089844 50.070312 369.097656 50.070312 369.097656 C 50.3125 368.980469 50.367188 368.773438 50.355469 368.53125 C 50.355469 368.53125 50.34375 368.542969 50.34375 368.542969 C 50.496094 368.503906 50.589844 368.402344 50.636719 368.253906 C 50.636719 368.253906 50.621094 368.265625 50.621094 368.265625 C 50.792969 368.203125 50.882812 368.074219 50.914062 367.898438 C 50.9375 367.371094 51.371094 367.121094 51.683594 366.796875 C 53.476562 364.941406 55.425781 363.261719 57.382812 361.582031 C 58.460938 360.65625 59.582031 359.757812 60.5625 358.71875 C 62.75 356.40625 65.132812 354.289062 67.484375 352.15625 C 71.945312 348.101562 76.683594 344.363281 81.945312 341.390625 C 86.242188 338.96875 90.761719 337.011719 95.558594 335.726562 C 98.308594 334.988281 101.027344 334.128906 103.796875 333.476562 C 105.980469 332.964844 108.199219 332.621094 110.441406 332.445312 C 111.585938 332.355469 112.714844 332.089844 113.871094 332.199219 Z M 117.769531 111.019531 C 117.050781 111.042969 116.449219 110.46875 116.425781 109.734375 C 116.398438 108.96875 117.042969 108.300781 117.792969 108.3125 C 118.507812 108.328125 119.074219 108.929688 119.0625 109.667969 C 119.050781 110.402344 118.480469 110.996094 117.769531 111.019531 Z M 121.355469 110.714844 C 120.746094 110.734375 120.257812 111.246094 120.253906 111.875 C 120.246094 112.558594 120.789062 113.089844 121.46875 113.066406 C 122.078125 113.042969 122.574219 112.53125 122.585938 111.90625 C 122.597656 111.261719 122.011719 110.691406 121.355469 110.714844 Z M 127.070312 111.96875 C 127.078125 111.351562 126.574219 110.820312 125.960938 110.796875 C 125.289062 110.769531 124.722656 111.335938 124.753906 112.007812 C 124.78125 112.621094 125.304688 113.109375 125.9375 113.109375 C 126.550781 113.105469 127.066406 112.589844 127.070312 111.96875 Z M 129.351562 108.761719 C 129.347656 108.132812 128.847656 107.617188 128.226562 107.597656 C 127.558594 107.578125 126.988281 108.164062 127.027344 108.839844 C 127.058594 109.457031 127.589844 109.933594 128.234375 109.917969 C 128.882812 109.902344 129.355469 109.410156 129.351562 108.761719 Z M 244.984375 182 C 247.371094 182 249.53125 181.03125 251.09375 179.46875 C 252.65625 177.902344 253.625 175.742188 253.625 173.355469 C 253.625 170.96875 252.65625 168.804688 251.09375 167.242188 C 249.53125 165.675781 247.371094 164.710938 244.984375 164.710938 C 240.214844 164.710938 236.347656 168.578125 236.347656 173.355469 C 236.347656 178.128906 240.214844 182 244.984375 182 Z M 244.984375 165.433594 C 249.351562 165.433594 252.902344 168.984375 252.902344 173.355469 C 252.902344 177.722656 249.351562 181.277344 244.984375 181.277344 C 240.621094 181.277344 237.070312 177.722656 237.070312 173.355469 C 237.070312 168.984375 240.621094 165.433594 244.984375 165.433594 Z M 247.867188 161.828125 C 247.867188 160.234375 246.578125 158.945312 244.984375 158.945312 C 243.394531 158.945312 242.105469 160.234375 242.105469 161.828125 C 242.105469 163.417969 243.394531 164.710938 244.984375 164.710938 C 246.578125 164.710938 247.867188 163.417969 247.867188 161.828125 Z M 238.878906 167.242188 C 240.003906 166.117188 240.003906 164.289062 238.878906 163.164062 C 237.753906 162.039062 235.929688 162.039062 234.804688 163.164062 C 233.679688 164.289062 233.679688 166.117188 234.804688 167.242188 C 235.929688 168.367188 237.753906 168.367188 238.878906 167.242188 Z M 233.464844 176.238281 C 235.058594 176.238281 236.347656 174.945312 236.347656 173.355469 C 236.347656 171.761719 235.058594 170.472656 233.464844 170.472656 C 231.875 170.472656 230.585938 171.761719 230.585938 173.355469 C 230.585938 174.945312 231.875 176.238281 233.464844 176.238281 Z M 238.878906 183.542969 C 240.003906 182.417969 240.003906 180.59375 238.878906 179.46875 C 237.753906 178.339844 235.929688 178.339844 234.804688 179.46875 C 233.679688 180.59375 233.679688 182.417969 234.804688 183.542969 C 235.929688 184.667969 237.753906 184.667969 238.878906 183.542969 Z M 242.105469 184.882812 C 242.105469 186.472656 243.394531 187.765625 244.984375 187.765625 C 246.578125 187.765625 247.867188 186.472656 247.867188 184.882812 C 247.867188 183.289062 246.578125 182 244.984375 182 C 243.394531 182 242.105469 183.289062 242.105469 184.882812 Z M 251.09375 183.542969 C 252.21875 184.667969 254.042969 184.667969 255.167969 183.542969 C 256.292969 182.417969 256.292969 180.59375 255.167969 179.46875 C 254.042969 178.339844 252.21875 178.339844 251.09375 179.46875 C 249.96875 180.59375 249.96875 182.417969 251.09375 183.542969 Z M 256.503906 176.238281 C 258.097656 176.238281 259.386719 174.945312 259.386719 173.355469 C 259.386719 171.761719 258.097656 170.472656 256.503906 170.472656 C 254.914062 170.472656 253.625 171.761719 253.625 173.355469 C 253.625 174.945312 254.914062 176.238281 256.503906 176.238281 Z M 255.167969 167.242188 C 256.292969 166.117188 256.292969 164.289062 255.167969 163.164062 C 254.042969 162.039062 252.21875 162.039062 251.09375 163.164062 C 249.96875 164.289062 249.96875 166.117188 251.09375 167.242188 C 252.21875 168.367188 254.042969 168.367188 255.167969 167.242188 Z M 244.984375 192.304688 C 246.1875 192.304688 247.164062 191.328125 247.164062 190.125 C 247.164062 188.921875 246.1875 187.945312 244.984375 187.945312 C 243.785156 187.945312 242.808594 188.921875 242.808594 190.125 C 242.808594 191.328125 243.785156 192.304688 244.984375 192.304688 Z M 244.984375 196.84375 C 246.1875 196.84375 247.164062 195.867188 247.164062 194.664062 C 247.164062 193.460938 246.1875 192.484375 244.984375 192.484375 C 243.785156 192.484375 242.808594 193.460938 242.808594 194.664062 C 242.808594 195.867188 243.785156 196.84375 244.984375 196.84375 Z M 233.980469 218.28125 C 233.292969 218.28125 232.738281 218.992188 232.738281 219.875 C 232.738281 220.753906 233.292969 221.464844 233.980469 221.464844 C 234.664062 221.464844 235.222656 220.753906 235.222656 219.875 C 235.222656 218.992188 234.664062 218.28125 233.980469 218.28125 Z M 237.554688 218.28125 C 236.867188 218.28125 236.3125 218.992188 236.3125 219.875 C 236.3125 220.753906 236.867188 221.464844 237.554688 221.464844 C 238.238281 221.464844 238.796875 220.753906 238.796875 219.875 C 238.796875 218.992188 238.238281 218.28125 237.554688 218.28125 Z M 241.128906 218.28125 C 240.441406 218.28125 239.886719 218.992188 239.886719 219.875 C 239.886719 220.753906 240.441406 221.464844 241.128906 221.464844 C 241.8125 221.464844 242.371094 220.753906 242.371094 219.875 C 242.371094 218.992188 241.8125 218.28125 241.128906 218.28125 Z M 244.703125 218.28125 C 244.015625 218.28125 243.460938 218.992188 243.460938 219.875 C 243.460938 220.753906 244.015625 221.464844 244.703125 221.464844 C 245.390625 221.464844 245.945312 220.753906 245.945312 219.875 C 245.945312 218.992188 245.386719 218.28125 244.703125 218.28125 Z M 248.277344 218.28125 C 247.589844 218.28125 247.035156 218.992188 247.035156 219.875 C 247.035156 220.753906 247.589844 221.464844 248.277344 221.464844 C 248.964844 221.464844 249.519531 220.753906 249.519531 219.875 C 249.519531 218.992188 248.964844 218.28125 248.277344 218.28125 Z M 251.851562 218.28125 C 251.164062 218.28125 250.609375 218.992188 250.609375 219.875 C 250.609375 220.753906 251.164062 221.464844 251.851562 221.464844 C 252.539062 221.464844 253.09375 220.753906 253.09375 219.875 C 253.09375 218.992188 252.539062 218.28125 251.851562 218.28125 Z M 255.425781 218.28125 C 254.738281 218.28125 254.183594 218.992188 254.183594 219.875 C 254.183594 220.753906 254.738281 221.464844 255.425781 221.464844 C 256.113281 221.464844 256.667969 220.753906 256.667969 219.875 C 256.667969 218.992188 256.113281 218.28125 255.425781 218.28125 Z M 232.035156 210.601562 C 231.382812 210.601562 230.855469 211.128906 230.855469 211.78125 C 230.855469 212.429688 231.382812 212.957031 232.035156 212.957031 C 232.683594 212.957031 233.210938 212.429688 233.210938 211.78125 C 233.210938 211.128906 232.683594 210.601562 232.035156 210.601562 Z M 232.035156 212.492188 C 231.640625 212.492188 231.320312 212.175781 231.320312 211.78125 C 231.320312 211.386719 231.640625 211.066406 232.035156 211.066406 C 232.429688 211.066406 232.746094 211.386719 232.746094 211.78125 C 232.746094 212.175781 232.429688 212.492188 232.035156 212.492188 Z M 234.390625 210.601562 C 233.738281 210.601562 233.210938 211.128906 233.210938 211.78125 C 233.210938 212.429688 233.738281 212.957031 234.390625 212.957031 C 235.039062 212.957031 235.566406 212.429688 235.566406 211.78125 C 235.566406 211.128906 235.039062 210.601562 234.390625 210.601562 Z M 234.390625 212.492188 C 233.996094 212.492188 233.675781 212.175781 233.675781 211.78125 C 233.675781 211.386719 233.996094 211.066406 234.390625 211.066406 C 234.78125 211.066406 235.101562 211.386719 235.101562 211.78125 C 235.101562 212.175781 234.78125 212.492188 234.390625 212.492188 Z M 236.746094 210.601562 C 236.09375 210.601562 235.566406 211.128906 235.566406 211.78125 C 235.566406 212.429688 236.09375 212.957031 236.746094 212.957031 C 237.394531 212.957031 237.921875 212.429688 237.921875 211.78125 C 237.921875 211.128906 237.394531 210.601562 236.746094 210.601562 Z M 236.746094 212.492188 C 236.351562 212.492188 236.03125 212.175781 236.03125 211.78125 C 236.03125 211.386719 236.351562 211.066406 236.746094 211.066406 C 237.136719 211.066406 237.457031 211.386719 237.457031 211.78125 C 237.457031 212.175781 237.136719 212.492188 236.746094 212.492188 Z M 239.097656 210.601562 C 238.449219 210.601562 237.921875 211.128906 237.921875 211.78125 C 237.921875 212.429688 238.449219 212.957031 239.097656 212.957031 C 239.75 212.957031 240.277344 212.429688 240.277344 211.78125 C 240.277344 211.128906 239.75 210.601562 239.097656 210.601562 Z M 239.097656 212.492188 C 238.707031 212.492188 238.386719 212.175781 238.386719 211.78125 C 238.386719 211.386719 238.707031 211.066406 239.097656 211.066406 C 239.492188 211.066406 239.8125 211.386719 239.8125 211.78125 C 239.8125 212.175781 239.492188 212.492188 239.097656 212.492188 Z M 241.453125 210.601562 C 240.804688 210.601562 240.277344 211.128906 240.277344 211.78125 C 240.277344 212.429688 240.804688 212.957031 241.453125 212.957031 C 242.105469 212.957031 242.632812 212.429688 242.632812 211.78125 C 242.632812 211.128906 242.105469 210.601562 241.453125 210.601562 Z M 241.453125 212.492188 C 241.0625 212.492188 240.742188 212.175781 240.742188 211.78125 C 240.742188 211.386719 241.0625 211.066406 241.453125 211.066406 C 241.847656 211.066406 242.167969 211.386719 242.167969 211.78125 C 242.167969 212.175781 241.847656 212.492188 241.453125 212.492188 Z M 243.808594 210.601562 C 243.160156 210.601562 242.632812 211.128906 242.632812 211.78125 C 242.632812 212.429688 243.160156 212.957031 243.808594 212.957031 C 244.457031 212.957031 244.984375 212.429688 244.984375 211.78125 C 244.984375 211.128906 244.457031 210.601562 243.808594 210.601562 Z M 243.808594 212.492188 C 243.414062 212.492188 243.09375 212.175781 243.09375 211.78125 C 243.09375 211.386719 243.414062 211.066406 243.808594 211.066406 C 244.203125 211.066406 244.519531 211.386719 244.519531 211.78125 C 244.519531 212.175781 244.203125 212.492188 243.808594 212.492188 Z M 246.164062 210.601562 C 245.511719 210.601562 244.984375 211.128906 244.984375 211.78125 C 244.984375 212.429688 245.511719 212.957031 246.164062 212.957031 C 246.8125 212.957031 247.339844 212.429688 247.339844 211.78125 C 247.339844 211.128906 246.8125 210.601562 246.164062 210.601562 Z M 246.164062 212.492188 C 245.769531 212.492188 245.449219 212.175781 245.449219 211.78125 C 245.449219 211.386719 245.769531 211.066406 246.164062 211.066406 C 246.554688 211.066406 246.875 211.386719 246.875 211.78125 C 246.875 212.175781 246.554688 212.492188 246.164062 212.492188 Z M 248.519531 210.558594 C 247.867188 210.558594 247.339844 211.085938 247.339844 211.738281 C 247.339844 212.386719 247.867188 212.914062 248.519531 212.914062 C 249.167969 212.914062 249.695312 212.386719 249.695312 211.738281 C 249.695312 211.085938 249.167969 210.558594 248.519531 210.558594 Z M 248.519531 212.449219 C 248.125 212.449219 247.804688 212.128906 247.804688 211.738281 C 247.804688 211.34375 248.125 211.023438 248.519531 211.023438 C 248.910156 211.023438 249.230469 211.34375 249.230469 211.738281 C 249.230469 212.128906 248.910156 212.449219 248.519531 212.449219 Z M 250.871094 210.558594 C 250.222656 210.558594 249.695312 211.085938 249.695312 211.738281 C 249.695312 212.386719 250.222656 212.914062 250.871094 212.914062 C 251.523438 212.914062 252.050781 212.386719 252.050781 211.738281 C 252.050781 211.085938 251.523438 210.558594 250.871094 210.558594 Z M 250.871094 212.449219 C 250.480469 212.449219 250.160156 212.128906 250.160156 211.738281 C 250.160156 211.34375 250.480469 211.023438 250.871094 211.023438 C 251.265625 211.023438 251.585938 211.34375 251.585938 211.738281 C 251.585938 212.128906 251.265625 212.449219 250.871094 212.449219 Z M 253.226562 210.558594 C 252.578125 210.558594 252.050781 211.085938 252.050781 211.738281 C 252.050781 212.386719 252.578125 212.914062 253.226562 212.914062 C 253.878906 212.914062 254.40625 212.386719 254.40625 211.738281 C 254.40625 211.085938 253.878906 210.558594 253.226562 210.558594 Z M 253.226562 212.449219 C 252.835938 212.449219 252.515625 212.128906 252.515625 211.738281 C 252.515625 211.34375 252.835938 211.023438 253.226562 211.023438 C 253.621094 211.023438 253.941406 211.34375 253.941406 211.738281 C 253.941406 212.128906 253.621094 212.449219 253.226562 212.449219 Z M 255.582031 210.558594 C 254.933594 210.558594 254.40625 211.085938 254.40625 211.738281 C 254.40625 212.386719 254.933594 212.914062 255.582031 212.914062 C 256.230469 212.914062 256.757812 212.386719 256.757812 211.738281 C 256.757812 211.085938 256.230469 210.558594 255.582031 210.558594 Z M 255.582031 212.449219 C 255.1875 212.449219 254.871094 212.128906 254.871094 211.738281 C 254.871094 211.34375 255.1875 211.023438 255.582031 211.023438 C 255.976562 211.023438 256.296875 211.34375 256.296875 211.738281 C 256.296875 212.128906 255.976562 212.449219 255.582031 212.449219 Z M 257.9375 210.558594 C 257.285156 210.558594 256.757812 211.085938 256.757812 211.738281 C 256.757812 212.386719 257.285156 212.914062 257.9375 212.914062 C 258.585938 212.914062 259.113281 212.386719 259.113281 211.738281 C 259.113281 211.085938 258.585938 210.558594 257.9375 210.558594 Z M 257.9375 212.449219 C 257.542969 212.449219 257.222656 212.128906 257.222656 211.738281 C 257.222656 211.34375 257.542969 211.023438 257.9375 211.023438 C 258.332031 211.023438 258.648438 211.34375 258.648438 211.738281 C 258.648438 212.128906 258.332031 212.449219 257.9375 212.449219 Z M 232.035156 213.003906 C 231.382812 213.003906 230.855469 213.53125 230.855469 214.179688 C 230.855469 214.832031 231.382812 215.359375 232.035156 215.359375 C 232.683594 215.359375 233.210938 214.832031 233.210938 214.179688 C 233.210938 213.53125 232.683594 213.003906 232.035156 213.003906 Z M 232.035156 214.894531 C 231.640625 214.894531 231.320312 214.574219 231.320312 214.179688 C 231.320312 213.789062 231.640625 213.46875 232.035156 213.46875 C 232.429688 213.46875 232.746094 213.789062 232.746094 214.179688 C 232.746094 214.574219 232.429688 214.894531 232.035156 214.894531 Z M 234.390625 213.003906 C 233.738281 213.003906 233.210938 213.53125 233.210938 214.179688 C 233.210938 214.832031 233.738281 215.359375 234.390625 215.359375 C 235.039062 215.359375 235.566406 214.832031 235.566406 214.179688 C 235.566406 213.53125 235.039062 213.003906 234.390625 213.003906 Z M 234.390625 214.894531 C 233.996094 214.894531 233.675781 214.574219 233.675781 214.179688 C 233.675781 213.789062 233.996094 213.46875 234.390625 213.46875 C 234.78125 213.46875 235.101562 213.789062 235.101562 214.179688 C 235.101562 214.574219 234.78125 214.894531 234.390625 214.894531 Z M 236.746094 213.003906 C 236.09375 213.003906 235.566406 213.53125 235.566406 214.179688 C 235.566406 214.832031 236.09375 215.359375 236.746094 215.359375 C 237.394531 215.359375 237.921875 214.832031 237.921875 214.179688 C 237.921875 213.53125 237.394531 213.003906 236.746094 213.003906 Z M 236.746094 214.894531 C 236.351562 214.894531 236.03125 214.574219 236.03125 214.179688 C 236.03125 213.789062 236.351562 213.46875 236.746094 213.46875 C 237.136719 213.46875 237.457031 213.789062 237.457031 214.179688 C 237.457031 214.574219 237.136719 214.894531 236.746094 214.894531 Z M 239.097656 213.003906 C 238.449219 213.003906 237.921875 213.53125 237.921875 214.179688 C 237.921875 214.832031 238.449219 215.359375 239.097656 215.359375 C 239.75 215.359375 240.277344 214.832031 240.277344 214.179688 C 240.277344 213.53125 239.75 213.003906 239.097656 213.003906 Z M 239.097656 214.894531 C 238.707031 214.894531 238.386719 214.574219 238.386719 214.179688 C 238.386719 213.789062 238.707031 213.46875 239.097656 213.46875 C 239.492188 213.46875 239.8125 213.789062 239.8125 214.179688 C 239.8125 214.574219 239.492188 214.894531 239.097656 214.894531 Z M 241.453125 213.003906 C 240.804688 213.003906 240.277344 213.53125 240.277344 214.179688 C 240.277344 214.832031 240.804688 215.359375 241.453125 215.359375 C 242.105469 215.359375 242.632812 214.832031 242.632812 214.179688 C 242.632812 213.53125 242.105469 213.003906 241.453125 213.003906 Z M 241.453125 214.894531 C 241.0625 214.894531 240.742188 214.574219 240.742188 214.179688 C 240.742188 213.789062 241.0625 213.46875 241.453125 213.46875 C 241.847656 213.46875 242.167969 213.789062 242.167969 214.179688 C 242.167969 214.574219 241.847656 214.894531 241.453125 214.894531 Z M 243.808594 213.003906 C 243.160156 213.003906 242.632812 213.53125 242.632812 214.179688 C 242.632812 214.832031 243.160156 215.359375 243.808594 215.359375 C 244.457031 215.359375 244.984375 214.832031 244.984375 214.179688 C 244.984375 213.53125 244.457031 213.003906 243.808594 213.003906 Z M 243.808594 214.894531 C 243.414062 214.894531 243.09375 214.574219 243.09375 214.179688 C 243.09375 213.789062 243.414062 213.46875 243.808594 213.46875 C 244.203125 213.46875 244.519531 213.789062 244.519531 214.179688 C 244.519531 214.574219 244.203125 214.894531 243.808594 214.894531 Z M 246.164062 213.003906 C 245.511719 213.003906 244.984375 213.53125 244.984375 214.179688 C 244.984375 214.832031 245.511719 215.359375 246.164062 215.359375 C 246.8125 215.359375 247.339844 214.832031 247.339844 214.179688 C 247.339844 213.53125 246.8125 213.003906 246.164062 213.003906 Z M 246.164062 214.894531 C 245.769531 214.894531 245.449219 214.574219 245.449219 214.179688 C 245.449219 213.789062 245.769531 213.46875 246.164062 213.46875 C 246.554688 213.46875 246.875 213.789062 246.875 214.179688 C 246.875 214.574219 246.554688 214.894531 246.164062 214.894531 Z M 248.519531 212.957031 C 247.867188 212.957031 247.339844 213.488281 247.339844 214.136719 C 247.339844 214.789062 247.867188 215.316406 248.519531 215.316406 C 249.167969 215.316406 249.695312 214.789062 249.695312 214.136719 C 249.695312 213.488281 249.167969 212.957031 248.519531 212.957031 Z M 248.519531 214.851562 C 248.125 214.851562 247.804688 214.53125 247.804688 214.136719 C 247.804688 213.742188 248.125 213.425781 248.519531 213.425781 C 248.910156 213.425781 249.230469 213.742188 249.230469 214.136719 C 249.230469 214.53125 248.910156 214.851562 248.519531 214.851562 Z M 250.871094 212.957031 C 250.222656 212.957031 249.695312 213.488281 249.695312 214.136719 C 249.695312 214.789062 250.222656 215.316406 250.871094 215.316406 C 251.523438 215.316406 252.050781 214.789062 252.050781 214.136719 C 252.050781 213.488281 251.523438 212.957031 250.871094 212.957031 Z M 250.871094 214.851562 C 250.480469 214.851562 250.160156 214.53125 250.160156 214.136719 C 250.160156 213.742188 250.480469 213.425781 250.871094 213.425781 C 251.265625 213.425781 251.585938 213.742188 251.585938 214.136719 C 251.585938 214.53125 251.265625 214.851562 250.871094 214.851562 Z M 253.226562 212.957031 C 252.578125 212.957031 252.050781 213.488281 252.050781 214.136719 C 252.050781 214.789062 252.578125 215.316406 253.226562 215.316406 C 253.878906 215.316406 254.40625 214.789062 254.40625 214.136719 C 254.40625 213.488281 253.878906 212.957031 253.226562 212.957031 Z M 253.226562 214.851562 C 252.835938 214.851562 252.515625 214.53125 252.515625 214.136719 C 252.515625 213.742188 252.835938 213.425781 253.226562 213.425781 C 253.621094 213.425781 253.941406 213.742188 253.941406 214.136719 C 253.941406 214.53125 253.621094 214.851562 253.226562 214.851562 Z M 255.582031 212.957031 C 254.933594 212.957031 254.40625 213.488281 254.40625 214.136719 C 254.40625 214.789062 254.933594 215.316406 255.582031 215.316406 C 256.230469 215.316406 256.757812 214.789062 256.757812 214.136719 C 256.757812 213.488281 256.230469 212.957031 255.582031 212.957031 Z M 255.582031 214.851562 C 255.1875 214.851562 254.871094 214.53125 254.871094 214.136719 C 254.871094 213.742188 255.1875 213.425781 255.582031 213.425781 C 255.976562 213.425781 256.296875 213.742188 256.296875 214.136719 C 256.296875 214.53125 255.976562 214.851562 255.582031 214.851562 Z M 257.9375 212.957031 C 257.285156 212.957031 256.757812 213.488281 256.757812 214.136719 C 256.757812 214.789062 257.285156 215.316406 257.9375 215.316406 C 258.585938 215.316406 259.113281 214.789062 259.113281 214.136719 C 259.113281 213.488281 258.585938 212.957031 257.9375 212.957031 Z M 257.9375 214.851562 C 257.542969 214.851562 257.222656 214.53125 257.222656 214.136719 C 257.222656 213.742188 257.542969 213.425781 257.9375 213.425781 C 258.332031 213.425781 258.648438 213.742188 258.648438 214.136719 C 258.648438 214.53125 258.332031 214.851562 257.9375 214.851562 Z M 232.035156 215.402344 C 231.382812 215.402344 230.855469 215.929688 230.855469 216.582031 C 230.855469 217.230469 231.382812 217.757812 232.035156 217.757812 C 232.683594 217.757812 233.210938 217.230469 233.210938 216.582031 C 233.210938 215.929688 232.683594 215.402344 232.035156 215.402344 Z M 232.035156 217.292969 C 231.640625 217.292969 231.320312 216.972656 231.320312 216.582031 C 231.320312 216.1875 231.640625 215.867188 232.035156 215.867188 C 232.429688 215.867188 232.746094 216.1875 232.746094 216.582031 C 232.746094 216.972656 232.429688 217.292969 232.035156 217.292969 Z M 234.390625 215.402344 C 233.738281 215.402344 233.210938 215.929688 233.210938 216.582031 C 233.210938 217.230469 233.738281 217.757812 234.390625 217.757812 C 235.039062 217.757812 235.566406 217.230469 235.566406 216.582031 C 235.566406 215.929688 235.039062 215.402344 234.390625 215.402344 Z M 234.390625 217.292969 C 233.996094 217.292969 233.675781 216.972656 233.675781 216.582031 C 233.675781 216.1875 233.996094 215.867188 234.390625 215.867188 C 234.78125 215.867188 235.101562 216.1875 235.101562 216.582031 C 235.101562 216.972656 234.78125 217.292969 234.390625 217.292969 Z M 236.746094 215.402344 C 236.09375 215.402344 235.566406 215.929688 235.566406 216.582031 C 235.566406 217.230469 236.09375 217.757812 236.746094 217.757812 C 237.394531 217.757812 237.921875 217.230469 237.921875 216.582031 C 237.921875 215.929688 237.394531 215.402344 236.746094 215.402344 Z M 236.746094 217.292969 C 236.351562 217.292969 236.03125 216.972656 236.03125 216.582031 C 236.03125 216.1875 236.351562 215.867188 236.746094 215.867188 C 237.136719 215.867188 237.457031 216.1875 237.457031 216.582031 C 237.457031 216.972656 237.136719 217.292969 236.746094 217.292969 Z M 239.097656 215.402344 C 238.449219 215.402344 237.921875 215.929688 237.921875 216.582031 C 237.921875 217.230469 238.449219 217.757812 239.097656 217.757812 C 239.75 217.757812 240.277344 217.230469 240.277344 216.582031 C 240.277344 215.929688 239.75 215.402344 239.097656 215.402344 Z M 239.097656 217.292969 C 238.707031 217.292969 238.386719 216.972656 238.386719 216.582031 C 238.386719 216.1875 238.707031 215.867188 239.097656 215.867188 C 239.492188 215.867188 239.8125 216.1875 239.8125 216.582031 C 239.8125 216.972656 239.492188 217.292969 239.097656 217.292969 Z M 241.453125 215.402344 C 240.804688 215.402344 240.277344 215.929688 240.277344 216.582031 C 240.277344 217.230469 240.804688 217.757812 241.453125 217.757812 C 242.105469 217.757812 242.632812 217.230469 242.632812 216.582031 C 242.632812 215.929688 242.105469 215.402344 241.453125 215.402344 Z M 241.453125 217.292969 C 241.0625 217.292969 240.742188 216.972656 240.742188 216.582031 C 240.742188 216.1875 241.0625 215.867188 241.453125 215.867188 C 241.847656 215.867188 242.167969 216.1875 242.167969 216.582031 C 242.167969 216.972656 241.847656 217.292969 241.453125 217.292969 Z M 243.808594 215.402344 C 243.160156 215.402344 242.632812 215.929688 242.632812 216.582031 C 242.632812 217.230469 243.160156 217.757812 243.808594 217.757812 C 244.457031 217.757812 244.984375 217.230469 244.984375 216.582031 C 244.984375 215.929688 244.457031 215.402344 243.808594 215.402344 Z M 243.808594 217.292969 C 243.414062 217.292969 243.09375 216.972656 243.09375 216.582031 C 243.09375 216.1875 243.414062 215.867188 243.808594 215.867188 C 244.203125 215.867188 244.519531 216.1875 244.519531 216.582031 C 244.519531 216.972656 244.203125 217.292969 243.808594 217.292969 Z M 246.164062 215.402344 C 245.511719 215.402344 244.984375 215.929688 244.984375 216.582031 C 244.984375 217.230469 245.511719 217.757812 246.164062 217.757812 C 246.8125 217.757812 247.339844 217.230469 247.339844 216.582031 C 247.339844 215.929688 246.8125 215.402344 246.164062 215.402344 Z M 246.164062 217.292969 C 245.769531 217.292969 245.449219 216.972656 245.449219 216.582031 C 245.449219 216.1875 245.769531 215.867188 246.164062 215.867188 C 246.554688 215.867188 246.875 216.1875 246.875 216.582031 C 246.875 216.972656 246.554688 217.292969 246.164062 217.292969 Z M 248.519531 215.359375 C 247.867188 215.359375 247.339844 215.886719 247.339844 216.539062 C 247.339844 217.1875 247.867188 217.714844 248.519531 217.714844 C 249.167969 217.714844 249.695312 217.1875 249.695312 216.539062 C 249.695312 215.886719 249.167969 215.359375 248.519531 215.359375 Z M 248.519531 217.25 C 248.125 217.25 247.804688 216.929688 247.804688 216.535156 C 247.804688 216.144531 248.125 215.824219 248.519531 215.824219 C 248.910156 215.824219 249.230469 216.144531 249.230469 216.535156 C 249.230469 216.929688 248.910156 217.25 248.519531 217.25 Z M 250.871094 215.359375 C 250.222656 215.359375 249.695312 215.886719 249.695312 216.539062 C 249.695312 217.1875 250.222656 217.714844 250.871094 217.714844 C 251.523438 217.714844 252.050781 217.1875 252.050781 216.539062 C 252.050781 215.886719 251.523438 215.359375 250.871094 215.359375 Z M 250.871094 217.25 C 250.480469 217.25 250.160156 216.929688 250.160156 216.535156 C 250.160156 216.144531 250.480469 215.824219 250.871094 215.824219 C 251.265625 215.824219 251.585938 216.144531 251.585938 216.535156 C 251.585938 216.929688 251.265625 217.25 250.871094 217.25 Z M 253.226562 215.359375 C 252.578125 215.359375 252.050781 215.886719 252.050781 216.539062 C 252.050781 217.1875 252.578125 217.714844 253.226562 217.714844 C 253.878906 217.714844 254.40625 217.1875 254.40625 216.539062 C 254.40625 215.886719 253.878906 215.359375 253.226562 215.359375 Z M 253.226562 217.25 C 252.835938 217.25 252.515625 216.929688 252.515625 216.535156 C 252.515625 216.144531 252.835938 215.824219 253.226562 215.824219 C 253.621094 215.824219 253.941406 216.144531 253.941406 216.535156 C 253.941406 216.929688 253.621094 217.25 253.226562 217.25 Z M 255.582031 215.359375 C 254.933594 215.359375 254.40625 215.886719 254.40625 216.539062 C 254.40625 217.1875 254.933594 217.714844 255.582031 217.714844 C 256.230469 217.714844 256.757812 217.1875 256.757812 216.539062 C 256.757812 215.886719 256.230469 215.359375 255.582031 215.359375 Z M 255.582031 217.25 C 255.1875 217.25 254.871094 216.929688 254.871094 216.535156 C 254.871094 216.144531 255.1875 215.824219 255.582031 215.824219 C 255.976562 215.824219 256.296875 216.144531 256.296875 216.535156 C 256.296875 216.929688 255.976562 217.25 255.582031 217.25 Z M 257.9375 215.359375 C 257.285156 215.359375 256.757812 215.886719 256.757812 216.539062 C 256.757812 217.1875 257.285156 217.714844 257.9375 217.714844 C 258.585938 217.714844 259.113281 217.1875 259.113281 216.539062 C 259.113281 215.886719 258.585938 215.359375 257.9375 215.359375 Z M 257.9375 217.25 C 257.542969 217.25 257.222656 216.929688 257.222656 216.535156 C 257.222656 216.144531 257.542969 215.824219 257.9375 215.824219 C 258.332031 215.824219 258.648438 216.144531 258.648438 216.535156 C 258.648438 216.929688 258.332031 217.25 257.9375 217.25 Z M 257.9375 217.25 " fill-opacity="1" fill-rule="nonzero"/></g><g clip-path="url(#2ad1e87a94)"><path fill="#b43740" d="M 236.1875 202.589844 C 235.292969 202.636719 234.9375 202.074219 235.453125 201.394531 C 235.96875 200.710938 236.953125 199.875 237.628906 199.515625 C 238.300781 199.152344 238.605469 199.664062 238.308594 200.65625 C 238.015625 201.648438 237.078125 202.542969 236.1875 202.589844 Z M 242.292969 200.078125 C 242.382812 198.839844 241.828125 197.988281 241.070312 198.179688 C 240.316406 198.371094 239.5 199.398438 239.265625 200.46875 C 239.027344 201.539062 239.597656 202.4375 240.5 202.414062 C 241.40625 202.386719 242.203125 201.3125 242.292969 200.078125 Z M 246.367188 200.019531 C 246.3125 198.757812 245.617188 197.71875 244.800781 197.71875 C 243.988281 197.714844 243.292969 198.753906 243.238281 200.015625 C 243.1875 201.277344 243.894531 202.351562 244.804688 202.351562 C 245.71875 202.351562 246.421875 201.277344 246.367188 200.019531 Z M 250.339844 200.480469 C 250.101562 199.410156 249.285156 198.386719 248.527344 198.191406 C 247.773438 197.996094 247.222656 198.847656 247.3125 200.082031 C 247.40625 201.316406 248.203125 202.390625 249.109375 202.414062 C 250.011719 202.441406 250.582031 201.546875 250.339844 200.480469 Z M 254.101562 201.394531 C 253.585938 200.710938 252.597656 199.875 251.925781 199.515625 C 251.25 199.152344 250.949219 199.664062 251.242188 200.65625 C 251.539062 201.648438 252.472656 202.542969 253.367188 202.589844 C 254.261719 202.636719 254.617188 202.074219 254.101562 201.394531 Z M 315.8125 306.054688 C 312.242188 303.21875 308.699219 300.347656 305.179688 297.453125 C 304.292969 296.722656 303.34375 296.257812 302.207031 296.15625 C 300.332031 295.992188 298.453125 295.824219 296.578125 295.65625 C 294.171875 296.933594 291.679688 298.019531 289.261719 299.277344 C 282.910156 302.578125 276.75 306.207031 270.617188 309.882812 C 263.253906 314.296875 256.054688 318.96875 248.96875 323.808594 C 240.4375 329.636719 232.027344 335.636719 223.488281 341.457031 C 218.035156 345.175781 212.449219 348.675781 206.832031 352.136719 C 202 355.113281 197.109375 357.996094 192.109375 360.675781 C 187.921875 362.921875 183.648438 365.019531 179.285156 366.917969 C 176.28125 368.226562 173.308594 369.601562 170.316406 370.9375 C 167.875 372.027344 165.421875 373.101562 162.984375 374.199219 C 162.570312 374.386719 162.117188 374.527344 161.789062 374.878906 C 162.34375 374.894531 162.894531 374.921875 163.449219 374.921875 C 218.527344 374.921875 273.609375 374.921875 328.691406 374.921875 C 328.691406 355.40625 328.691406 335.886719 328.691406 316.371094 C 325.792969 314.035156 322.894531 311.703125 320.007812 309.355469 C 319.546875 308.980469 319.140625 308.546875 318.707031 308.140625 C 317.546875 307.714844 316.738281 306.789062 315.8125 306.054688 Z M 119.367188 105.164062 C 119.171875 103.042969 120.65625 101.203125 122.347656 100.65625 C 124.058594 100.105469 126.453125 101.390625 126.828125 103.640625 C 127.003906 104.679688 126.988281 105.742188 126.589844 106.769531 C 125.941406 108.433594 124.175781 109.578125 122.585938 109.320312 C 120.941406 109.058594 119.46875 107.375 119.367188 105.636719 C 119.359375 105.453125 119.367188 105.269531 119.367188 105.164062 Z M 237.070312 173.355469 C 237.070312 168.984375 240.621094 165.433594 244.984375 165.433594 C 249.351562 165.433594 252.902344 168.984375 252.902344 173.355469 C 252.902344 177.722656 249.351562 181.277344 244.984375 181.277344 C 240.621094 181.277344 237.070312 177.722656 237.070312 173.355469 Z M 232.746094 211.78125 C 232.746094 212.175781 232.429688 212.496094 232.035156 212.496094 C 231.640625 212.496094 231.320312 212.175781 231.320312 211.78125 C 231.320312 211.386719 231.640625 211.066406 232.035156 211.066406 C 232.429688 211.066406 232.746094 211.386719 232.746094 211.78125 Z M 235.101562 211.78125 C 235.101562 212.175781 234.78125 212.496094 234.390625 212.496094 C 233.996094 212.496094 233.675781 212.175781 233.675781 211.78125 C 233.675781 211.386719 233.996094 211.066406 234.390625 211.066406 C 234.78125 211.066406 235.101562 211.386719 235.101562 211.78125 Z M 237.457031 211.78125 C 237.457031 212.175781 237.136719 212.496094 236.746094 212.496094 C 236.351562 212.496094 236.03125 212.175781 236.03125 211.78125 C 236.03125 211.386719 236.351562 211.066406 236.746094 211.066406 C 237.136719 211.066406 237.457031 211.386719 237.457031 211.78125 Z M 239.8125 211.78125 C 239.8125 212.175781 239.492188 212.496094 239.097656 212.496094 C 238.707031 212.496094 238.386719 212.175781 238.386719 211.78125 C 238.386719 211.386719 238.707031 211.066406 239.097656 211.066406 C 239.492188 211.066406 239.8125 211.386719 239.8125 211.78125 Z M 242.167969 211.78125 C 242.167969 212.175781 241.847656 212.496094 241.453125 212.496094 C 241.0625 212.496094 240.742188 212.175781 240.742188 211.78125 C 240.742188 211.386719 241.0625 211.066406 241.453125 211.066406 C 241.847656 211.066406 242.167969 211.386719 242.167969 211.78125 Z M 244.519531 211.78125 C 244.519531 212.175781 244.203125 212.496094 243.808594 212.496094 C 243.414062 212.496094 243.09375 212.175781 243.09375 211.78125 C 243.09375 211.386719 243.414062 211.066406 243.808594 211.066406 C 244.203125 211.066406 244.519531 211.386719 244.519531 211.78125 Z M 246.875 211.78125 C 246.875 212.175781 246.554688 212.496094 246.164062 212.496094 C 245.769531 212.496094 245.449219 212.175781 245.449219 211.78125 C 245.449219 211.386719 245.769531 211.066406 246.164062 211.066406 C 246.554688 211.066406 246.875 211.386719 246.875 211.78125 Z M 249.230469 211.738281 C 249.230469 212.128906 248.910156 212.449219 248.519531 212.449219 C 248.125 212.449219 247.804688 212.128906 247.804688 211.738281 C 247.804688 211.34375 248.125 211.023438 248.519531 211.023438 C 248.910156 211.023438 249.230469 211.34375 249.230469 211.738281 Z M 251.585938 211.738281 C 251.585938 212.128906 251.265625 212.449219 250.871094 212.449219 C 250.480469 212.449219 250.160156 212.128906 250.160156 211.738281 C 250.160156 211.34375 250.480469 211.023438 250.871094 211.023438 C 251.265625 211.023438 251.585938 211.34375 251.585938 211.738281 Z M 253.941406 211.738281 C 253.941406 212.128906 253.621094 212.449219 253.226562 212.449219 C 252.835938 212.449219 252.515625 212.128906 252.515625 211.738281 C 252.515625 211.34375 252.835938 211.023438 253.226562 211.023438 C 253.621094 211.023438 253.941406 211.34375 253.941406 211.738281 Z M 256.296875 211.738281 C 256.296875 212.128906 255.976562 212.449219 255.582031 212.449219 C 255.1875 212.449219 254.871094 212.128906 254.871094 211.738281 C 254.871094 211.34375 255.1875 211.023438 255.582031 211.023438 C 255.976562 211.023438 256.296875 211.34375 256.296875 211.738281 Z M 258.648438 211.738281 C 258.648438 212.128906 258.332031 212.449219 257.9375 212.449219 C 257.542969 212.449219 257.222656 212.128906 257.222656 211.738281 C 257.222656 211.34375 257.542969 211.023438 257.9375 211.023438 C 258.332031 211.023438 258.648438 211.34375 258.648438 211.738281 Z M 232.746094 214.179688 C 232.746094 214.574219 232.429688 214.894531 232.035156 214.894531 C 231.640625 214.894531 231.320312 214.574219 231.320312 214.179688 C 231.320312 213.789062 231.640625 213.46875 232.035156 213.46875 C 232.429688 213.46875 232.746094 213.789062 232.746094 214.179688 Z M 235.101562 214.179688 C 235.101562 214.574219 234.78125 214.894531 234.390625 214.894531 C 233.996094 214.894531 233.675781 214.574219 233.675781 214.179688 C 233.675781 213.789062 233.996094 213.46875 234.390625 213.46875 C 234.78125 213.46875 235.101562 213.789062 235.101562 214.179688 Z M 237.457031 214.179688 C 237.457031 214.574219 237.136719 214.894531 236.746094 214.894531 C 236.351562 214.894531 236.03125 214.574219 236.03125 214.179688 C 236.03125 213.789062 236.351562 213.46875 236.746094 213.46875 C 237.136719 213.46875 237.457031 213.789062 237.457031 214.179688 Z M 239.8125 214.179688 C 239.8125 214.574219 239.492188 214.894531 239.097656 214.894531 C 238.707031 214.894531 238.386719 214.574219 238.386719 214.179688 C 238.386719 213.789062 238.707031 213.46875 239.097656 213.46875 C 239.492188 213.46875 239.8125 213.789062 239.8125 214.179688 Z M 242.167969 214.179688 C 242.167969 214.574219 241.847656 214.894531 241.453125 214.894531 C 241.0625 214.894531 240.742188 214.574219 240.742188 214.179688 C 240.742188 213.789062 241.0625 213.46875 241.453125 213.46875 C 241.847656 213.46875 242.167969 213.789062 242.167969 214.179688 Z M 244.519531 214.179688 C 244.519531 214.574219 244.203125 214.894531 243.808594 214.894531 C 243.414062 214.894531 243.09375 214.574219 243.09375 214.179688 C 243.09375 213.789062 243.414062 213.46875 243.808594 213.46875 C 244.203125 213.46875 244.519531 213.789062 244.519531 214.179688 Z M 246.875 214.179688 C 246.875 214.574219 246.554688 214.894531 246.164062 214.894531 C 245.769531 214.894531 245.449219 214.574219 245.449219 214.179688 C 245.449219 213.789062 245.769531 213.46875 246.164062 213.46875 C 246.554688 213.46875 246.875 213.789062 246.875 214.179688 Z M 249.230469 214.136719 C 249.230469 214.53125 248.910156 214.851562 248.519531 214.851562 C 248.125 214.851562 247.804688 214.53125 247.804688 214.136719 C 247.804688 213.742188 248.125 213.421875 248.519531 213.421875 C 248.910156 213.421875 249.230469 213.742188 249.230469 214.136719 Z M 251.585938 214.136719 C 251.585938 214.53125 251.265625 214.851562 250.871094 214.851562 C 250.480469 214.851562 250.160156 214.53125 250.160156 214.136719 C 250.160156 213.742188 250.480469 213.421875 250.871094 213.421875 C 251.265625 213.421875 251.585938 213.742188 251.585938 214.136719 Z M 253.941406 214.136719 C 253.941406 214.53125 253.621094 214.851562 253.226562 214.851562 C 252.835938 214.851562 252.515625 214.53125 252.515625 214.136719 C 252.515625 213.742188 252.835938 213.421875 253.226562 213.421875 C 253.621094 213.421875 253.941406 213.742188 253.941406 214.136719 Z M 256.296875 214.136719 C 256.296875 214.53125 255.976562 214.851562 255.582031 214.851562 C 255.1875 214.851562 254.871094 214.53125 254.871094 214.136719 C 254.871094 213.742188 255.1875 213.421875 255.582031 213.421875 C 255.976562 213.421875 256.296875 213.742188 256.296875 214.136719 Z M 258.648438 214.136719 C 258.648438 214.53125 258.332031 214.851562 257.9375 214.851562 C 257.542969 214.851562 257.222656 214.53125 257.222656 214.136719 C 257.222656 213.742188 257.542969 213.421875 257.9375 213.421875 C 258.332031 213.421875 258.648438 213.742188 258.648438 214.136719 Z M 232.746094 216.582031 C 232.746094 216.972656 232.429688 217.292969 232.035156 217.292969 C 231.640625 217.292969 231.320312 216.972656 231.320312 216.582031 C 231.320312 216.1875 231.640625 215.867188 232.035156 215.867188 C 232.429688 215.867188 232.746094 216.1875 232.746094 216.582031 Z M 235.101562 216.582031 C 235.101562 216.972656 234.78125 217.292969 234.390625 217.292969 C 233.996094 217.292969 233.675781 216.972656 233.675781 216.582031 C 233.675781 216.1875 233.996094 215.867188 234.390625 215.867188 C 234.78125 215.867188 235.101562 216.1875 235.101562 216.582031 Z M 237.457031 216.582031 C 237.457031 216.972656 237.136719 217.292969 236.746094 217.292969 C 236.351562 217.292969 236.03125 216.972656 236.03125 216.582031 C 236.03125 216.1875 236.351562 215.867188 236.746094 215.867188 C 237.136719 215.867188 237.457031 216.1875 237.457031 216.582031 Z M 239.8125 216.582031 C 239.8125 216.972656 239.492188 217.292969 239.097656 217.292969 C 238.707031 217.292969 238.386719 216.972656 238.386719 216.582031 C 238.386719 216.1875 238.707031 215.867188 239.097656 215.867188 C 239.492188 215.867188 239.8125 216.1875 239.8125 216.582031 Z M 242.167969 216.582031 C 242.167969 216.972656 241.847656 217.292969 241.453125 217.292969 C 241.0625 217.292969 240.742188 216.972656 240.742188 216.582031 C 240.742188 216.1875 241.0625 215.867188 241.453125 215.867188 C 241.847656 215.867188 242.167969 216.1875 242.167969 216.582031 Z M 244.519531 216.582031 C 244.519531 216.972656 244.203125 217.292969 243.808594 217.292969 C 243.414062 217.292969 243.09375 216.972656 243.09375 216.582031 C 243.09375 216.1875 243.414062 215.867188 243.808594 215.867188 C 244.203125 215.867188 244.519531 216.1875 244.519531 216.582031 Z M 246.875 216.582031 C 246.875 216.972656 246.554688 217.292969 246.164062 217.292969 C 245.769531 217.292969 245.449219 216.972656 245.449219 216.582031 C 245.449219 216.1875 245.769531 215.867188 246.164062 215.867188 C 246.554688 215.867188 246.875 216.1875 246.875 216.582031 Z M 249.230469 216.539062 C 249.230469 216.929688 248.910156 217.25 248.519531 217.25 C 248.125 217.25 247.804688 216.929688 247.804688 216.539062 C 247.804688 216.144531 248.125 215.824219 248.519531 215.824219 C 248.910156 215.824219 249.230469 216.144531 249.230469 216.539062 Z M 251.585938 216.539062 C 251.585938 216.929688 251.265625 217.25 250.871094 217.25 C 250.480469 217.25 250.160156 216.929688 250.160156 216.539062 C 250.160156 216.144531 250.480469 215.824219 250.871094 215.824219 C 251.265625 215.824219 251.585938 216.144531 251.585938 216.539062 Z M 253.941406 216.539062 C 253.941406 216.929688 253.621094 217.25 253.226562 217.25 C 252.835938 217.25 252.515625 216.929688 252.515625 216.539062 C 252.515625 216.144531 252.835938 215.824219 253.226562 215.824219 C 253.621094 215.824219 253.941406 216.144531 253.941406 216.539062 Z M 256.296875 216.539062 C 256.296875 216.929688 255.976562 217.25 255.582031 217.25 C 255.1875 217.25 254.871094 216.929688 254.871094 216.539062 C 254.871094 216.144531 255.1875 215.824219 255.582031 215.824219 C 255.976562 215.824219 256.296875 216.144531 256.296875 216.539062 Z M 258.648438 216.539062 C 258.648438 216.929688 258.332031 217.25 257.9375 217.25 C 257.542969 217.25 257.222656 216.929688 257.222656 216.539062 C 257.222656 216.144531 257.542969 215.824219 257.9375 215.824219 C 258.332031 215.824219 258.648438 216.144531 258.648438 216.539062 Z M 258.648438 216.539062 " fill-opacity="1" fill-rule="nonzero"/></g></svg>